<svg xmlns="http://www.w3.org/2000/svg" fill="none" viewBox="0 0 189 162">
  <path fill="#fff" d="M3.98775 103.284 25.6541 86.333h52.4327l25.1332 16.951v19.299l-25.1332 17.059H28.6874L3.12109 122.583l.86666-19.299Z"/>
  <path fill="#000" fill-rule="evenodd" d="M27.7739 85.5896c.1749.2137.1434.5287-.0703.7036-4.0723 3.3325-11.3804 8.5244-17.5947 12.9392-2.90681 2.0646-5.5743 3.9606-7.55934 5.4156-.22271.163-.53561.115-.69887-.108-.16326-.223-.11508-.535.10763-.699 2.01279-1.475 4.70125-3.385 7.6217-5.4599 6.19938-4.404 13.44408-9.5506 17.49028-12.8618.2137-.1749.5287-.1434.7036.0703Z" clip-rule="evenodd"/>
  <path fill="#000" fill-rule="evenodd" d="M.542991 100.55c.156352-.228.467619-.285.695239-.129 3.42602 2.353 6.54636 4.582 9.54627 6.725 6.815 4.867 13.0084 9.291 20.752 13.724.2396.137.3227.442.1855.682-.1372.24-.4427.323-.6823.186-7.7886-4.459-14.0435-8.926-20.879-13.808-2.99247-2.138-6.09623-4.354-9.488675-6.685-.227616-.156-.285386-.467-.129034-.695ZM74.634 84.3569c.1491-.2324.4584-.2998.6908-.1507 9.9708 6.3998 20.8155 13.6573 29.9292 20.4918.221.165.266.479.1.7-.165.22-.479.265-.7.1-9.0854-6.8133-19.907-14.0558-29.8693-20.4502-.2324-.1492-.2999-.4585-.1507-.6909Z" clip-rule="evenodd"/>
  <path fill="#000" fill-rule="evenodd" d="M74.2358 121.591c.1761.213.4912.243.704.067 2.7866-2.305 8.0619-5.69 13.7622-9.319.2844-.181.5698-.363.856-.545 5.4297-3.456 11.127-7.082 15.26-10.132.222-.164.269-.477.105-.699-.164-.223-.477-.27-.699-.106-4.104 3.029-9.7743 6.638-15.2168 10.102-.2814.18-.5623.358-.8423.537-5.6745 3.612-11.0158 7.036-13.8625 9.391-.2128.176-.2426.491-.0666.704Zm-.0229 21.325c.1594.225.4714.279.6969.119 3.3287-2.354 6.3601-4.583 9.2744-6.725 6.62-4.868 12.6355-9.291 20.1568-13.723.238-.14.317-.447.177-.685-.14-.237-.447-.317-.684-.176-7.5672 4.458-13.6444 8.927-20.2849 13.809-2.9068 2.137-5.9216 4.354-9.2166 6.684-.2255.159-.279.471-.1196.697ZM1.41186 121.018c.15769-.226.4693-.282.69598-.125 3.52346 2.451 6.73272 4.773 9.81826 7.005 7.01 5.07 13.3812 9.679 21.3466 14.297.2389.138.3203.444.1818.683-.1385.239-.4445.32-.6834.182-8.0105-4.644-14.4432-9.297-21.4737-14.382-3.07812-2.227-6.27079-4.536-9.76062-6.964-.22669-.157-.28262-.469-.12492-.696Z" clip-rule="evenodd"/>
  <path fill="#000" fill-rule="evenodd" d="M23.8555 118.744c0-.276.2238-.5.5-.5h59.7992c.2762 0 .5.224.5.5s-.2238.5-.5.5H24.3555c-.2762 0-.5-.224-.5-.5Zm58.5663-31.911c-22.9656 0-39.8109.0874-60.6374 1.2786-.2757.0158-.5119-.1949-.5277-.4706-.0158-.2757.1949-.512.4706-.5278 20.8573-1.1929 37.7273-1.2802 60.6945-1.2802.2761 0 .5.2239.5.5 0 .2762-.2239.5-.5.5Zm-2.5989 53.386H23.4902c-.2761 0-.5-.224-.5-.5s.2239-.5.5-.5h56.3327c.2761 0 .5.224.5.5s-.2239.5-.5.5ZM4.42188 98.627c.27614 0 .5.2238.5.5v24.735c0 .276-.22386.5-.5.5-.27615 0-.5-.224-.5-.5V99.127c0-.2762.22385-.5.5-.5Zm97.93312 1.706c.277 0 .5.224.5.5v25.033c0 .276-.223.5-.5.5-.276 0-.5-.224-.5-.5v-25.033c0-.276.224-.5.5-.5Z" clip-rule="evenodd"/>
  <path fill="#000" fill-rule="evenodd" d="M26.9531 116.112c.2762 0 .5.224.5.5v22.654c0 .276-.2238.5-.5.5-.2761 0-.5-.224-.5-.5v-22.654c0-.276.2239-.5.5-.5Zm51.1352-3.443c.2761 0 .5.224.5.5 0 1.084.0215 3.165.0482 5.738.0256 2.479.056 5.413.0764 8.352.0414 5.969.042 11.976-.1265 14.127-.0216.275-.2622.481-.5375.46-.2753-.022-.481-.263-.4595-.538.1643-2.097.1651-8.049.1235-14.043-.0203-2.926-.0506-5.858-.0763-8.338-.0267-2.58-.0483-4.672-.0483-5.758 0-.276.2238-.5.5-.5Zm-70.9218-8.477c.25844.075.4092.341.34098.602-.21214.81-.76702 2.358-1.30785 3.867l-.00716.02c-.00276.008-.00553.016-.0083.023l-1.28713 3.8c-.08644.255-.35974.398-.61819.322-.25845-.075-.4092-.341-.34099-.602.20853-.796.75712-2.327 1.29487-3.827l.00522-.015 1.31036-3.868c.08644-.255.35974-.398.61819-.322Zm2.59159 2.981c.26771.068.42791.339.35801.606l-4.24345 16.206c-.06995.267-.34364.429-.61131.361-.26766-.068-.42795-.339-.358-.607l4.24344-16.206c.06995-.267.34364-.428.61131-.36Zm7.08831 4.691c.2676.068.4279.339.358.607l-4.3552 16.632c-.0699.267-.3436.429-.6113.361-.2676-.068-.4279-.34-.358-.607l4.3551-16.632c.07-.267.3437-.429.6114-.361Zm7.2008 4.506c.2676.068.4279.339.358.607l-4.5153 17.244c-.07.267-.3437.428-.6114.36-.2676-.067-.4279-.339-.358-.606l4.5153-17.244c.07-.267.3437-.429.6114-.361Z" clip-rule="evenodd"/>
  <path fill="#000" fill-rule="evenodd" d="M40.7365 118.688c.2677.068.4279.339.358.606l-5.2694 20.125c-.07.267-.3437.428-.6114.36-.2676-.068-.4279-.339-.358-.606l5.2695-20.124c.0699-.268.3436-.429.6113-.361Zm-8.3166 0c.2676.068.4279.339.358.606l-5.2695 20.125c-.0699.267-.3436.428-.6113.36-.2676-.068-.4279-.339-.358-.606l5.2695-20.124c.0699-.268.3436-.429.6113-.361Zm16.9534-.427c.2677.068.428.339.358.606-.8879 3.391-1.8059 7.078-2.7175 10.741l-.0236.095c-.9032 3.629-1.7997 7.231-2.6524 10.488-.07.267-.3437.428-.6113.361-.2677-.068-.428-.34-.358-.607.8511-3.251 1.7465-6.848 2.6503-10.48l.0227-.091c.9112-3.661 1.8308-7.355 2.7205-10.753.07-.267.3437-.428.6113-.36Zm17.3983.427c.2677.068.428.339.358.606l-5.2484 20.044c-.07.268-.3437.429-.6113.361-.2677-.068-.428-.339-.358-.606l5.2484-20.044c.07-.268.3437-.429.6113-.361Zm-8.3166 0c.2677.068.428.339.358.606l-5.2484 20.044c-.07.268-.3437.429-.6114.361-.2676-.068-.4279-.339-.358-.606l5.2485-20.044c.07-.268.3437-.429.6113-.361Zm17.014-.001c.2677.068.428.34.358.607l-5.2484 20.044c-.07.267-.3437.429-.6113.361-.2677-.068-.428-.34-.358-.607l5.2484-20.044c.07-.267.3437-.429.6113-.361Zm20.5116-12.276c.2677.068.428.34.358.607l-6.5645 25.07c-.07.267-.3437.429-.6113.361-.2677-.068-.428-.339-.358-.607l6.5645-25.07c.07-.267.3437-.428.6113-.361Zm-10.191 7.159c.2676.068.4279.339.358.607l-6.4769 24.735c-.0699.267-.3436.428-.6113.361-.2676-.068-.4279-.34-.358-.607l6.4769-24.735c.0699-.267.3436-.429.6113-.361Zm16.3594-1.28c.267.068.428.339.358.607l-3.3504 12.794c-.0699.267-.3436.428-.6113.36-.2676-.067-.4279-.339-.358-.606l3.3497-12.794c.07-.267.344-.429.612-.361Z" clip-rule="evenodd"/>
  <path fill="#fff" fill-rule="evenodd" d="m37.9289 63.9877 9.0398-7.3449 5.6499 2.2599 2.26 2.825h4.5199l3.955-7.3449 9.0398 5.6499 2.825 5.0849-2.825 3.955 2.825 3.3899h5.0849l1.695 3.39-1.695 11.8648h-6.2149l-4.5199 6.7799 2.2599 5.0849-9.6048 6.2149-2.825-5.085h-6.7799l-4.5199 6.215-9.0398-5.085-3.955-2.2599 3.955-6.7799v-2.26h-3.955l-4.5199-3.9549V75.2875l6.2149-.565 3.9549-5.6499-2.8249-5.0849Zm11.2998 15.8197 9.0399-7.3449 2.8249 2.825-.565 9.0398-7.9098 6.2149-3.39-2.8249v-7.9099Z" clip-rule="evenodd"/>
  <path fill="#FF479F" fill-rule="evenodd" d="m37.9289 63.9877 9.0398-7.3449 5.6499 2.2599 2.26 2.825h4.5199l3.955-7.3449 9.0398 5.6499 2.825 5.0849-2.825 3.955 2.825 3.3899h5.0849l1.695 3.39-1.695 11.8648h-6.2149l-4.5199 6.7799 2.2599 5.0849-9.6048 6.2149-2.825-5.085h-6.7799l-4.5199 6.215-9.0398-5.085-3.955-2.2599 3.955-6.7799v-2.26h-3.955l-4.5199-3.9549V75.2875l6.2149-.565 3.9549-5.6499-2.8249-5.0849Zm11.2998 15.8197 9.0399-7.3449 2.8249 2.825-.565 9.0398-7.9098 6.2149-3.39-2.8249v-7.9099Z" clip-rule="evenodd"/>
  <path fill="#000" fill-rule="evenodd" d="M46.2255 69.6267c.2402.1362.3245.4414.1882.6816l-5.3674 9.4636c-.1362.2402-.4414.3245-.6816.1882-.2402-.1362-.3244-.4414-.1882-.6816l5.3674-9.4636c.1362-.2402.4414-.3244.6816-.1882Z" clip-rule="evenodd"/>
  <path fill="#000" fill-rule="evenodd" d="M42.0856 65.6581c.2477-.1221.5475-.0204.6696.2273.1349.2735.2681.5461.4007.8175.8616 1.7634 1.6977 3.4748 2.808 5.0477.1593.2256.1055.5376-.1201.6968-.2256.1593-.5376.1055-.6968-.1201-1.1603-1.6438-2.0347-3.4343-2.8934-5.1928-.1318-.2699-.2632-.5391-.3953-.8068-.1221-.2477-.0204-.5474.2273-.6696Zm11.2121-6.6614c.2602-.0924.5461.0437.6385.3039.5692 1.6033 1.0383 3.231 1.5039 4.8467.0875.3036.1749.6069.2628.9095.2169.7465.3589 1.2186.7206 1.7611.1531.2298.0911.5402-.1387.6934s-.5402.0911-.6934-.1387c-.4556-.6834-.6327-1.2928-.8468-2.0298l-.002-.007c-.0892-.3069-.1774-.6131-.2654-.9185-.4658-1.6159-.9252-3.21-1.4834-4.7821-.0924-.2602.0437-.5461.3039-.6385Z" clip-rule="evenodd"/>
  <path fill="#000" fill-rule="evenodd" d="M54.0368 57.6598c.1405.2377.0617.5443-.1761.6848-4.2123 2.4891-8.3684 5.3175-11.6049 8.9424-.1839.206-.5.2239-.706.04-.206-.1839-.2239-.5-.04-.706 3.3406-3.7414 7.6031-6.6324 11.8422-9.1373.2378-.1405.5444-.0617.6848.1761Zm4.2039 8.4386c-1.1015-.0644-2.2339.012-3.1836.0835-.2753.0208-.5154-.1856-.5361-.461-.0208-.2754.1856-.5154.461-.5361.9479-.0715 2.1411-.1534 3.3171-.0847 1.1679.0683 2.3785.2875 3.3339.8607.2367.1421.3135.4492.1715.686-.1421.2368-.4493.3136-.686.1715-.7495-.4497-1.7682-.655-2.8778-.7199Z" clip-rule="evenodd"/>
  <path fill="#000" fill-rule="evenodd" d="M67.2033 57.9538c.2122.1768.2408.4921.064.7042-1.7915 2.1498-3.1199 4.8296-4.4072 7.4262-.1581.3191-.3156.6368-.4733.9522-.1235.247-.4239.3471-.6708.2236-.247-.1235-.3471-.4238-.2237-.6708.1563-.3125.3133-.6296.472-.9499 1.2791-2.582 2.6623-5.3745 4.5348-7.6215.1768-.2121.4921-.2408.7042-.064Zm8.3675 6.6692c.1953.1953.1953.5119 0 .7071-1.5598 1.5599-2.7422 3.6038-3.9014 5.6076-.1804.3118-.3602.6226-.5408.9305-.1397.2382-.446.318-.6842.1783-.2382-.1397-.3181-.4461-.1783-.6843.1746-.2977.3506-.6024.5291-.9112 1.1525-1.9947 2.4078-4.1673 4.0685-5.828.1953-.1953.5119-.1953.7071 0Z" clip-rule="evenodd"/>
  <path fill="#000" fill-rule="evenodd" d="M70.9997 69.3535c.2352-.1447.5432-.0714.6879.1638 1.1922 1.9373 2.0421 3.8968 2.7338 6.041.0847.2628-.0596.5446-.3224.6293-.2628.0848-.5446-.0595-.6294-.3223-.6717-2.0824-1.4906-3.9664-2.6336-5.8239-.1448-.2352-.0714-.5431.1637-.6879Z" clip-rule="evenodd"/>
  <path fill="#000" fill-rule="evenodd" d="M81.6501 75.979c.0083.276-.2087.5066-.4847.5149-.5587.0169-1.1209.0377-1.6853.0585-1.7886.0659-3.601.1327-5.406.0828-.276-.0076-.4936-.2376-.486-.5136.0076-.2761.2376-.4936.5136-.486 1.7697.0489 3.5371-.0162 5.3183-.0818.5701-.021 1.1417-.042 1.7151-.0594.2761-.0084.5066.2086.515.4846Z" clip-rule="evenodd"/>
  <path fill="#000" fill-rule="evenodd" d="M82.1845 75.638c.2749.0258.4769.2696.4511.5445-.1263 1.3463-.2871 2.687-.4473 4.0236-.3414 2.8469-.6805 5.6754-.6805 8.5007 0 .2762-.2238.5-.5.5-.2761 0-.5-.2238-.5-.5 0-2.8853.351-5.8158.6958-8.6946.1583-1.3217.3153-2.6326.4364-3.9231.0258-.275.2696-.4769.5445-.4511Z" clip-rule="evenodd"/>
  <path fill="#000" fill-rule="evenodd" d="M82.6381 87.6884c.0162.2757-.1941.5123-.4698.5285-2.8258.1662-5.6535.3154-8.485.4243-.276.0106-.5082-.2045-.5189-.4805-.0106-.2759.2045-.5082.4805-.5188 2.8223-.1085 5.6427-.2572 8.4647-.4232.2756-.0163.5123.1941.5285.4697Z" clip-rule="evenodd"/>
  <path fill="#000" fill-rule="evenodd" d="M75.1424 84.8618c.2511.1148.3617.4115.2468.6626-1.3128 2.8719-2.9917 5.5112-4.66 8.1339-.2944.4629-.5886.9253-.8803 1.3883-.1472.2337-.4559.3038-.6896.1566-.2336-.1472-.3037-.4559-.1565-.6896.2963-.4704.5935-.9376.8896-1.4032 1.669-2.6245 3.3057-5.1981 4.5874-8.0018.1148-.2511.4114-.3616.6626-.2468Z" clip-rule="evenodd"/>
  <path fill="#000" fill-rule="evenodd" d="M68.8762 93.5108c.2329-.1482.542-.0795.6902.1534.6386 1.0035 1.2176 2.0374 1.7871 3.0589.0209.0375.0418.0749.0626.1124.5502.987 1.0932 1.961 1.6837 2.9058.1463.2342.0752.5427-.159.6887-.2342.147-.5427.076-.689-.159-.6041-.9663-1.158-1.96-1.7049-2.9411-.0223-.04-.0446-.0799-.0668-.1198-.5709-1.024-1.1366-2.0336-1.7573-3.009-.1483-.233-.0796-.542.1534-.6903Zm-8.1422 6.5322c.0579.27-.1141.536-.3841.593-3.0363.651-5.7301.819-8.8277.141-.2698-.059-.4406-.325-.3816-.595.059-.2698.3255-.4406.5953-.3816 2.9223.6396 5.4665.4876 8.4045-.1417.27-.0579.5358.1141.5936.3843Z" clip-rule="evenodd"/>
  <path fill="#000" fill-rule="evenodd" d="M59.4742 99.8334c.2517-.1135.5478-.0015.6614.2506.8656 1.918 1.8232 3.748 2.8115 5.622.1287.244.0351.547-.2091.675-.2443.129-.5467.036-.6755-.209-.9873-1.872-1.9585-3.727-2.8385-5.677-.1135-.252-.0015-.548.2502-.6616Z" clip-rule="evenodd"/>
  <path fill="#000" fill-rule="evenodd" d="M72.5261 100.012c.1532.23.0911.54-.1386.693-.1064.071-.2128.142-.3193.213-3.0789 2.053-6.2374 4.16-9.6327 5.756-.2499.117-.5477.01-.6652-.24-.1175-.25-.0101-.547.2398-.665 3.3264-1.564 6.4297-3.633 9.5263-5.698.0988-.066.1976-.132.2964-.1979.2297-.1532.5402-.0911.6933.1389Zm-19.7495-1.328c.262.0873.4036.3705.3162.6325-.4929 1.4785-1.1667 2.8875-1.8542 4.2615-.1232.247-.2467.491-.3698.735-.5683 1.127-1.127 2.235-1.6027 3.372-.1066.255-.3995.375-.6543.268-.2547-.106-.3748-.399-.2682-.654.4907-1.173 1.0688-2.319 1.6378-3.447.1217-.241.2429-.481.3628-.721.6853-1.37 1.3311-2.724 1.8-4.1308.0873-.2619.3704-.4035.6324-.3162Zm-7.439-4.2641c.199.1914.2052.5079.0138.7069-1.5011 1.5613-2.8361 3.2263-4.192 4.9172-.5638.703-1.1311 1.411-1.7155 2.117-.176.213-.4912.243-.704.067-.2128-.176-.2426-.491-.0666-.704.5632-.681 1.1186-1.373 1.6759-2.0686 1.3678-1.7058 2.7473-3.4263 4.2814-5.0217.1914-.199.5079-.2052.707-.0138Z" clip-rule="evenodd"/>
  <path fill="#000" fill-rule="evenodd" d="M38.2061 101.302c.1421-.236.4492-.313.686-.171 2.5676 1.54 4.993 3.278 7.4042 5.005.3106.223.621.445.9314.667.0254.018.074.056.1231.094.0289.023.058.045.0826.064.0257.02.0517.04.0774.059.0019-.001.0038-.002.0058-.002.262-.088.5451.054.6324.316.0246.074.0708.229.0297.4-.0247.102-.0838.22-.1994.308-.111.085-.2293.109-.3126.113-.1463.007-.269-.043-.3238-.067-.0702-.03-.1376-.069-.1946-.105-.1151-.071-.2333-.159-.3234-.228-.0407-.031-.0784-.061-.1088-.085l-.0116-.009-.0408-.032-.0128-.009c-.0022-.002-.0035-.003-.0041-.003-.0003-.001-.0004-.001-.0003-.001-.3116-.222-.6224-.445-.9328-.667-2.415-1.73-4.8058-3.442-7.3361-4.961-.2368-.142-.3136-.449-.1715-.686Zm8.9975 6.36c-.0002 0-.0014-.004-.0027-.01.0023.007.003.01.0027.01Zm.5387-.49c.0089.003.01.004.0017 0h-.0017ZM41.379 89.4841c.2726-.0442.5294.1409.5736.4135.3178 1.9596 1.2929 4.1256 2.685 5.5176.1952.1953.1952.5119 0 .7071-.1953.1953-.5119.1953-.7071 0-1.5676-1.5675-2.6203-3.9391-2.965-6.0646-.0442-.2726.1409-.5294.4135-.5736Z" clip-rule="evenodd"/>
  <path fill="#000" fill-rule="evenodd" d="M33.2036 89.4447c.0603-.2695.3276-.4391.5971-.3788 2.0826.4658 4.2906.4436 6.5123.4213.4763-.0048.9532-.0096 1.4296-.0096.2762 0 .5.2238.5.5 0 .2761-.2238.5-.5.5-.4529 0-.9137.0048-1.38.0097-2.2245.0234-4.5735.0481-6.7802-.4455-.2695-.0603-.4391-.3276-.3788-.5971Zm.4315-11.0474c.0767-.2653.354-.4181.6192-.3413 2.7384.7922 5.3906.627 8.2739.2666.274-.0342.5239.1601.5582.4341.0342.2741-.1601.5239-.4342.5582-2.9088.3636-5.7317.5534-8.6758-.2983-.2653-.0768-.4181-.354-.3413-.6193Z" clip-rule="evenodd"/>
  <path fill="#000" fill-rule="evenodd" d="M34.5467 78.0372c.2761.004.4967.231.4927.5072-.0211 1.4567-.0766 2.9117-.1318 4.3598-.0018.0469-.0036.0937-.0054.1406-.057 1.4966-.1126 2.986-.1296 4.4751-.0136 1.1997.0056 2.0004.3763 2.989.0969.2585-.0341.5467-.2926.6437-.2586.0969-.5468-.0341-.6438-.2926-.441-1.1762-.4536-2.1396-.4398-3.3515.0171-1.5044.0732-3.0067.1302-4.5018.0018-.0454.0035-.0908.0052-.1362.0554-1.4514.1105-2.896.1314-4.3406.004-.2761.2311-.4967.5072-.4927Z" clip-rule="evenodd"/>
  <path fill="#000" fill-rule="evenodd" d="M30.3476 74.6774c.1814-.2082.4972-.2299.7054-.0485 1.5546 1.3543 2.8814 2.7781 4.256 4.2533l.0189.0202c.1882.2021.177.5185-.025.7067-.202.1883-.5184.1771-.7067-.0249l-.0025-.0028c-1.3855-1.4869-2.6822-2.8785-4.1975-4.1985-.2082-.1814-.23-.4973-.0486-.7055Z" clip-rule="evenodd"/>
  <path fill="#000" fill-rule="evenodd" d="M38.0026 74.5488c.0184.2755-.1901.5138-.4656.5321-.773.0516-1.5226.1297-2.2798.2087-.4755.0496-.9539.0995-1.443.1433-1.2491.1119-2.5229.1785-3.8373.0712-.2752-.0224-.4801-.2638-.4576-.539.0224-.2752.2638-.4801.539-.4576 1.231.1004 2.4394.0393 3.6666-.0706.4572-.041.9237-.0895 1.3955-.1386.7752-.0806 1.5647-.1628 2.3501-.2151.2755-.0184.5138.1901.5321.4656Z" clip-rule="evenodd"/>
  <path fill="#000" fill-rule="evenodd" d="M41.724 69.3471c.1605.2247.1084.537-.1163.6975-1.8698 1.3356-2.8413 3.624-3.4811 5.9411-.0735.2662-.3488.4224-.615.3489-.2662-.0735-.4224-.3489-.3489-.615.6511-2.3582 1.6976-4.9415 3.8638-6.4887.2247-.1605.537-.1085.6975.1162Z" clip-rule="evenodd"/>
  <path fill="#000" fill-rule="evenodd" d="M37.2318 63.2867c.2316-.1503.5412-.0844.6916.1472 1.2218 1.8826 2.2379 3.8196 3.1449 5.8603.1122.2523-.0015.5478-.2538.66-.2524.1121-.5478-.0015-.66-.2539-.8895-2.0013-1.8815-3.8907-3.0699-5.722-.1504-.2316-.0845-.5413.1472-.6916Z" clip-rule="evenodd"/>
  <path fill="#000" fill-rule="evenodd" d="M36.9031 63.3695c.1077-.2543.4012-.373.6554-.2653 1.2322.5223 2.3679 1.1865 3.4694 1.8418.0725.0431.1449.0863.2172.1293 1.0332.6154 2.0393 1.2146 3.1077 1.7077.2508.1158.3602.4128.2445.6636-.1157.2507-.4128.3601-.6635.2444-1.1182-.5161-2.1672-1.141-3.1909-1.7509-.0756-.045-.151-.0899-.2263-.1347-1.104-.6568-2.1863-1.288-3.3483-1.7805-.2543-.1077-.373-.4012-.2652-.6554Zm3.9855 5.8722c.1411-.2374.4479-.3155.6853-.1744 1.1308.6721 2.2971 1.2146 3.5175 1.7822l.034.0158c.3545.1649.7235.3365 1.0665.6795.1953.1953.1953.5119 0 .7071-.1952.1953-.5118.1953-.7071 0-.2036-.2036-.4201-.3119-.7833-.4809l-.0521-.0242c-1.2064-.5611-2.4119-1.1217-3.5864-1.8198-.2374-.1411-.3155-.4479-.1744-.6853Zm-3.813 5.0721c.2258-.1589.5377-.1047.6966.1212 1.2613 1.7922 2.5193 3.4975 4.0409 5.0191.1952.1952.1952.5118 0 .7071-.1953.1952-.5119.1952-.7071 0-1.5868-1.5868-2.8864-3.3528-4.1516-5.1508-.1589-.2258-.1047-.5377.1212-.6966Z" clip-rule="evenodd"/>
  <path fill="#000" fill-rule="evenodd" d="M49.1082 55.4268c.1257.2459.0282.5471-.2177.6728-4.5807 2.3413-8.9476 5.1498-11.9703 9.3122-.1622.2234-.4749.273-.6983.1108-.2235-.1623-.2731-.475-.1108-.6984 3.1629-4.3554 7.7001-7.2515 12.3243-9.615.2459-.1257.5471-.0282.6728.2176Z" clip-rule="evenodd"/>
  <path fill="#000" fill-rule="evenodd" d="M46.2453 55.6997c.1309-.2432.4341-.3342.6773-.2034 2.2056 1.1869 4.4265 2.283 6.7323 3.2262.2555.1046.378.3966.2734.6521-.1045.2556-.3965.378-.6521.2735-2.3481-.9606-4.6021-2.0736-6.8275-3.2712-.2432-.1308-.3342-.434-.2034-.6772Zm13.4346 6.5288c-1.9468 0-3.8189.0627-5.699.4152-.2714.0509-.5327-.1279-.5836-.3993-.0509-.2714.1279-.5327.3993-.5836 1.9736-.37 3.9207-.4323 5.8833-.4323.2762 0 .5.2239.5.5 0 .2762-.2238.5-.5.5Z" clip-rule="evenodd"/>
  <path fill="#000" fill-rule="evenodd" d="M59.0277 61.1422c.2456-.1261.547-.0292.6731.2165.9302 1.8126 1.8086 3.6508 2.6826 5.48.0967.2022.1932.4043.2898.6062.1192.2492.0138.5477-.2353.6668-.2491.1192-.5477.0138-.6668-.2353-.0966-.202-.1931-.4039-.2896-.6058-.8749-1.831-1.747-3.6562-2.6704-5.4553-.1261-.2457-.0291-.547.2166-.6731Z" clip-rule="evenodd"/>
  <path fill="#000" fill-rule="evenodd" d="M63.7177 54.0773c.247.1235.3471.4238.2236.6708-.4416.8834-.9192 1.761-1.3924 2.6303-.2348.4314-.4685.8609-.6962 1.2879-.6919 1.2981-1.3397 2.5952-1.8453 3.9437-.097.2585-.3852.3895-.6438.2926-.2585-.097-.3895-.3852-.2926-.6438.5289-1.4103 1.2011-2.7531 1.8993-4.0629.2365-.4437.4748-.8814.7117-1.3167.468-.8597.9307-1.7098 1.3649-2.5783.1235-.247.4239-.3471.6708-.2236Z" clip-rule="evenodd"/>
  <path fill="#000" fill-rule="evenodd" d="M63.9944 54.2101c.2519-.1132.5478-.0008.661.2511.81 1.8026 1.6638 3.5729 2.5354 5.3524.1215.248.0189.5475-.2291.669-.248.1215-.5475.0189-.6689-.2291-.8729-1.7822-1.7326-3.5644-2.5495-5.3824-.1132-.2519-.0008-.5479.2511-.661Z" clip-rule="evenodd"/>
  <path fill="#000" fill-rule="evenodd" d="M66.3058 58.6594c.1348-.241.4394-.3272.6805-.1924 2.1161 1.183 4.078 2.6093 6.0122 4.0155.508.3693 1.0141.7372 1.5205 1.099.2247.1605.2768.4727.1163.6974-.1605.2248-.4728.2768-.6975.1163-.5219-.3728-1.0383-.7481-1.5526-1.122-1.9282-1.4014-3.8279-2.7823-5.8869-3.9334-.241-.1347-.3272-.4393-.1925-.6804Zm-2.3561-4.3037c.1714-.2165.4859-.2531.7024-.0817 1.271 1.0058 2.6333 1.8205 4.0389 2.6103.3369.1893.6774.3777 1.0197.5672 1.0757.5954 2.1698 1.201 3.2332 1.8776.2329.1483.3016.4573.1534.6903-.1483.233-.4573.3016-.6903.1534-1.0351-.6587-2.0917-1.2436-3.1612-1.8355-.347-.1921-.6953-.3849-1.0447-.5812-1.4167-.7961-2.8349-1.6417-4.1696-2.698-.2165-.1714-.2531-.4858-.0818-.7024Z" clip-rule="evenodd"/>
  <path fill="#000" fill-rule="evenodd" d="M72.0902 58.8542c.2612-.0894.5455.0499.6349.3112.3359.9813.7651 1.9177 1.2156 2.8666.0653.1376.1312.2756.1973.4141.3862.8095.7801 1.635 1.1208 2.4866.1025.2564-.0222.5474-.2786.65-.2563.1025-.5473-.0222-.6499-.2786-.3276-.8191-.7058-1.6117-1.0925-2.4223-.0666-.1397-.1335-.2799-.2004-.4209-.4521-.9521-.9027-1.9324-1.2584-2.9717-.0894-.2613.0499-.5455.3112-.635Zm.1898 9.9286c.2381-.1398.5445-.0602.6844.1779.6633 1.1291 1.3217 2.2606 1.9787 3.3921.1387.2388.0575.5448-.1813.6835-.2388.1386-.5448.0575-.6834-.1813-.6568-1.1312-1.3143-2.2609-1.9762-3.3878-.1399-.2381-.0603-.5445.1778-.6844Z" clip-rule="evenodd"/>
  <path fill="#000" fill-rule="evenodd" d="M74.9372 70.9958c.2645.0794.4146.3581.3352.6226-.4765 1.5883-.5078 3.3475-.539 5.0982-.0016.0921-.0033.1841-.005.2761-.0051.2761-.233.4957-.5091.4906-.2761-.0051-.4958-.2331-.4907-.5092.0019-.1039.0038-.2087.0056-.3141.0299-1.7152.0628-3.6036.5804-5.3289.0793-.2645.3581-.4146.6226-.3353Z" clip-rule="evenodd"/>
  <path fill="#000" fill-rule="evenodd" d="M74.0223 71.9372c.0563-.2704.3212-.4438.5915-.3875 1.067.2223 2.1458.3182 3.2515.3977.1718.0124.3446.0244.518.0364.9334.0647 1.8878.1309 2.8379.2666.2733.0391.4633.2923.4242.5657-.039.2734-.2923.4633-.5656.4243-.911-.1302-1.8236-.1935-2.7574-.2584-.1755-.0122-.3517-.0244-.5289-.0371-1.1104-.0799-2.2465-.1793-3.3837-.4162-.2703-.0564-.4438-.3212-.3875-.5915Z" clip-rule="evenodd"/>
  <path fill="#000" fill-rule="evenodd" d="M79.4721 71.6159c.2338-.147.5424-.0767.6895.157.9426 1.4985 1.822 3.011 2.6946 4.5381.137.2397.0537.5452-.1861.6822-.2397.137-.5452.0537-.6822-.1861-.8708-1.5239-1.7418-3.0217-2.6728-4.5017-.147-.2338-.0767-.5425.157-.6895ZM38.355 89.7791c.2655-.0758.5422.0779.6181.3434.2999 1.0496.6017 2.0709.9761 3.0693.097.2585-.034.5468-.2926.6437-.2585.097-.5468-.034-.6437-.2926-.3897-1.0392-.701-2.0944-1.0013-3.1456-.0759-.2656.0778-.5423.3434-.6182Z" clip-rule="evenodd"/>
  <path fill="#000" fill-rule="evenodd" d="M37.7823 92.1217c.142-.2368.4492-.3135.686-.1715.4855.2914.9784.6156 1.4701.939l.1347.0885c.5401.355 1.0808.7073 1.6312 1.0285 1.1044.6447 2.2086 1.1399 3.3418 1.2658.2745.0305.4722.2777.4417.5521-.0304.2745-.2777.4723-.5521.4418-1.3395-.1489-2.5873-.7258-3.7355-1.396-.576-.3362-1.1369-.702-1.6763-1.0565-.0442-.0291-.0882-.058-.1321-.0868-.4954-.3259-.9712-.6388-1.438-.9189-.2368-.142-.3136-.4492-.1715-.686Z" clip-rule="evenodd"/>
  <path fill="#000" fill-rule="evenodd" d="M39.2005 93.38c.227.1571.2837.4686.1265.6957-.4814.6953-.9934 1.3826-1.4994 2.0619-.2665.3578-.5315.7135-.7895 1.067-.7554 1.0351-1.4684 2.074-2.0602 3.1784-.1304.244-.4334.335-.6768.205-.2434-.13-.335-.433-.2046-.6769.6246-1.166 1.3697-2.2489 2.1339-3.296.2706-.3708.5415-.7345.8107-1.0958.4987-.6693.9912-1.3304 1.4637-2.0128.1572-.2271.4687-.2837.6957-.1265Z" clip-rule="evenodd"/>
  <path fill="#000" fill-rule="evenodd" d="M35.295 99.1084c.1839-.206.5-.2239.706-.04.4791.4278 1.02.9096 1.5963 1.3176.5802.41 1.1574.717 1.6999.825.2708.054.4464.318.3923.588-.0542.271-.3176.447-.5884.393-.7434-.149-1.4555-.547-2.0813-.99-.6287-.445-1.2096-.963-1.6826-1.3856l-.0022-.002c-.206-.1839-.2239-.5-.04-.706Zm-5.7316-13.1922c.2151-.1732.5299-.1392.703.0759.1996.2479.4011.513.6089.7862.3983.5239.8195 1.0779 1.2937 1.5987.7173.7879 1.4495 1.3711 2.1951 1.5368.2696.0599.4395.327.3796.5965-.0599.2696-.3269.4396-.5965.3797-1.0626-.2362-1.9717-1.0204-2.7177-1.8398-.5014-.5508-.9775-1.1761-1.3921-1.7206-.1988-.2611-.3834-.5035-.5499-.7104-.1732-.2151-.1392-.5298.0759-.703Z" clip-rule="evenodd"/>
  <path fill="#000" fill-rule="evenodd" d="M29.8731 73.6582c.2762-.0021.5017.2201.5038.4962.0279 3.6565.0718 7.2925.3595 10.9188.0624.787.149 1.5094.3319 2.241.0669.2679-.0959.5394-.3638.6064-.2679.0669-.5394-.0959-.6064-.3638-.2024-.8099-.2944-1.5952-.3586-2.4045-.2909-3.6664-.3347-7.3354-.3625-10.9903-.0021-.2761.22-.5017.4961-.5038Zm18.8921 3.8151c.2752-.0219.5161.1836.5379.4588.2401 3.0248.2932 6.0772.3459 9.1067.022 1.2627.0439 2.5213.0793 3.7723.0078.2761-.2097.5062-.4857.514-.2761.0078-.5061-.2097-.5139-.4857-.0361-1.2748-.0582-2.547-.0803-3.8169-.0524-3.016-.1046-6.0188-.3421-9.0112-.0219-.2753.1836-.5162.4589-.538Z" clip-rule="evenodd"/>
  <path fill="#000" fill-rule="evenodd" d="M47.2748 86.4273c.1663-.2204.4798-.2642.7003-.0979 1.1644.8789 2.2986 1.7773 3.427 2.6712 2.3735 1.88 4.7217 3.7402 7.2741 5.3567.2333.1477.3026.4566.1549.6899-.1478.2333-.4566.3026-.6899.1549-2.5968-1.6446-5.0163-3.5608-7.4129-5.4588-1.1183-.8856-2.2316-1.7674-3.3556-2.6157-.2205-.1663-.2643-.4798-.0979-.7003Z" clip-rule="evenodd"/>
  <path fill="#000" fill-rule="evenodd" d="M66.986 86.1262c.1767.2121.1481.5274-.0641.7042-1.6181 1.3485-3.3029 2.6202-4.9763 3.8833-.2945.2222-.5885.4442-.8818.6663-1.9652 1.488-3.9001 2.984-5.7091 4.6184-.2049.1851-.521.1691-.7062-.0358-.1851-.2049-.1691-.5211.0358-.7062 1.8438-1.6659 3.8088-3.1843 5.7758-4.6737.2957-.2239.5914-.447.8866-.6699 1.6741-1.2637 3.337-2.5189 4.9351-3.8506.2121-.1768.5274-.1481.7042.064Z" clip-rule="evenodd"/>
  <path fill="#000" fill-rule="evenodd" d="M67.0604 73.6595c.2754.0193.483.2584.4636.5338-.152 2.16-.2347 4.3284-.3178 6.5063-.0159.4176-.0319.8356-.0483 1.2538-.1021 2.5956-.2235 5.2009-.4826 7.7918-.0275.2748-.2725.4753-.5473.4478-.2748-.0275-.4752-.2725-.4477-.5473.2558-2.5585.3763-5.1379.4783-7.7316.0164-.4157.0323-.832.0482-1.2486.083-2.1778.1665-4.365.3197-6.5424.0194-.2754.2584-.483.5339-.4636Zm-7.6637-1.8879c.1478.2333.0784.5422-.1549.6899-1.9872 1.2586-3.8682 2.672-5.7421 4.1242-.4211.3263-.8421.6549-1.264.9841-1.4502 1.1317-2.9097 2.2706-4.4105 3.3501-.2242.1612-.5366.1102-.6979-.1139-.1612-.2242-.1102-.5367.114-.6979 1.4833-1.0669 2.9221-2.1897 4.3696-3.3192.4242-.331.8492-.6626 1.2762-.9936 1.8787-1.456 3.7906-2.8935 5.8197-4.1786.2333-.1477.5422-.0784.6899.1549Z" clip-rule="evenodd"/>
  <path fill="#000" fill-rule="evenodd" d="M58.2725 72.6139c.1506-.2314.4604-.2968.6918-.1461.6323.4117 1.2732.8154 1.916 1.2203 2.3984 1.511 4.8222 3.0378 6.9153 5.0534.199.1916.2049.5081.0134.707-.1916.1989-.5081.2049-.707.0133-2.0119-1.9374-4.3226-3.3937-6.7083-4.8974-.6543-.4123-1.3142-.8283-1.9751-1.2586-.2314-.1507-.2968-.4605-.1461-.6919Z" clip-rule="evenodd"/>
  <path fill="#000" fill-rule="evenodd" d="M61.1145 73.517c.2759.0115.4902.2445.4787.5204l-.0034.0821c-.1597 3.8335-.3192 7.6622-.42 11.4926-.0073.276-.237.4939-.513.4867-.2761-.0073-.494-.237-.4867-.513.101-3.8382.2608-7.6733.4204-11.5044.0012-.0285.0024-.0571.0036-.0856.0115-.2759.2445-.4903.5204-.4788Z" clip-rule="evenodd"/>
  <path fill="#000" fill-rule="evenodd" d="M60.8164 84.9209c.1403.2379.0612.5444-.1767.6847-1.4438.8514-2.7825 1.8517-4.1453 2.87-.0373.0279-.0746.0558-.1119.0836-1.3939 1.0414-2.8158 2.0971-4.3648 2.9822-.2398.137-.5452.0537-.6822-.186-.137-.2398-.0537-.5452.186-.6822 1.488-.8503 2.8631-1.8697 4.2625-2.9151.0427-.0319.0855-.0639.1283-.0958 1.3505-1.0093 2.7278-2.0384 4.2194-2.9181.2379-.1403.5444-.0612.6847.1767Z" clip-rule="evenodd"/>
  <path fill="#000" fill-rule="evenodd" d="M59.6384 84.7094c.1013-.2569.3916-.3831.6485-.2819 1.0806.4257 2.1977.7814 3.3332 1.1429.1568.0499.3139.1.4714.1503 1.2898.4125 2.5953.8445 3.8426 1.3988.2523.1122.366.4076.2538.66-.1121.2523-.4076.366-.6599.2538-1.1926-.53-2.4518-.9478-3.7411-1.3601-.1558-.0498-.3121-.0996-.4688-.1494-1.1322-.3605-2.2836-.727-3.3977-1.1659-.2569-.1012-.3832-.3915-.282-.6485Zm-29.8335-1.864c.1944-.1962.511-.1977.7071-.0033.0642.0635.1282.127.1921.1903 1.0318 1.0232 2.034 2.0168 3.1509 2.876.2188.1684.2598.4823.0914.7012-.1684.2188-.4823.2598-.7012.0914-1.1686-.8989-2.2127-1.9344-3.2342-2.9476-.0677-.0671-.1352-.1341-.2027-.2009-.1962-.1944-.1977-.5109-.0034-.7071Zm-.4018-5.1059c.2059-.184.522-.1663.706.0396.9354 1.0464 1.9351 2.0093 2.9501 2.987.515.4961 1.034.996 1.5506 1.5126.1953.1952.1953.5118 0 .7071-.1952.1953-.5118.1953-.7071 0-.488-.488-.9924-.974-1.5006-1.4637-1.0317-.9941-2.0793-2.0035-3.0385-3.0766-.1841-.2058-.1664-.5219.0395-.706Zm9.1177-5.7219c.1678-.2194.4816-.2612.7009-.0935 1.0797.8256 2.1019 1.7251 3.1062 2.6087.1979.1741.395.3475.5918.5197.2078.1818.2289.4977.047.7055-.1818.2078-.4977.2289-.7055.0471-.2011-.176-.4012-.3521-.6009-.5277-1.0042-.8834-1.9962-1.7561-3.046-2.5589-.2194-.1677-.2612-.4816-.0935-.7009Zm1.3665-11.0864c.1281-.2446.4303-.3391.6749-.2109.6166.323 1.2678.5989 1.941.8842.1011.0429.2027.0859.3048.1294.7719.3287 1.5645.6783 2.2994 1.1193.2367.142.3135.4492.1715.686-.1421.2367-.4492.3135-.686.1715-.6699-.402-1.4056-.7284-2.1767-1.0568-.0993-.0422-.1992-.0846-.2997-.1271-.6701-.2839-1.3626-.5772-2.0183-.9207-.2446-.1281-.3391-.4303-.2109-.6749Zm3.4827-3.0913c.1969-.1937.5135-.1911.7071.0057.5283.5369 1.1849 1.1816 1.8918 1.7281.7152.5529 1.4351.9681 2.0873 1.0985.2708.0542.4464.3176.3922.5884-.0541.2707-.3175.4463-.5883.3922-.8801-.176-1.7479-.7043-2.5029-1.288-.7633-.5902-1.4592-1.2754-1.9929-1.8178-.1937-.1969-.1911-.5135.0057-.7071Zm18.3955-1.2413c.2584-.0973.5468.0334.644.2919.2589.6881.4635 1.4172.6615 2.123.0463.165.0922.3287.1384.4904.2478.867.5061 1.6876.8743 2.424.1235.2469.0234.5473-.2236.6708-.247.1235-.5473.0234-.6708-.2236-.4129-.8257-.692-1.7236-.9414-2.5965-.0493-.1723-.0973-.3433-.1448-.5128-.1973-.7026-.3873-1.3795-.6295-2.0232-.0973-.2584.0334-.5468.2919-.644Zm14.6144 15.2347c.2696-.0599.5367.1101.5966.3796.1846.831.3388 1.6761.4911 2.5109.0721.3952.1438.7881.2181 1.176.0519.2712-.1258.5332-.397.5851-.2713.052-.5332-.1258-.5852-.397-.0778-.4067-.1512-.8093-.2242-1.2091-.1503-.824-.2984-1.6364-.479-2.4489-.0599-.2696.1101-.5367.3796-.5966ZM54.5645 89.3469c.1142-.2514.4107-.3625.6621-.2482 1.358.6172 2.6802 1.2806 3.9874 1.9937.2424.1322.3318.4359.1995.6783-.1322.2425-.4359.3318-.6783.1996-1.2872-.7021-2.5877-1.3546-3.9224-1.9613-.2514-.1143-.3626-.4107-.2483-.6621Zm3.3243-2.5209c.1802-.2092.4959-.2327.7051-.0525 1.1231.9676 2.4952 1.7546 3.9072 2.1581.2656.0758.4193.3526.3434.6181-.0758.2655-.3526.4192-.6181.3434-1.5693-.4484-3.0674-1.3128-4.2852-2.3619-.2092-.1803-.2327-.496-.0524-.7052Zm2.4324-5.7081c.0563-.2704.3211-.4439.5914-.3876.8136.1695 1.6093.4047 2.3814.633l.0609.018c.7982.2359 1.5722.4627 2.3562.6195.2708.0541.4464.3175.3923.5883-.0542.2708-.3176.4464-.5884.3922-.8349-.1669-1.6509-.4068-2.4435-.641-.015-.0044-.0299-.0088-.0448-.0132-.7839-.2317-1.5452-.4568-2.318-.6178-.2704-.0563-.4439-.3211-.3875-.5914Zm.4151-3.8972c.0243-.275.267-.4784.5421-.4541.8533.0753 1.6827.2571 2.4835.4509.1822.0441.3622.0886.5408.1328.6167.1525 1.2158.3007 1.8236.4112.2717.0494.4519.3097.4025.5814-.0494.2716-.3097.4518-.5814.4024-.6418-.1166-1.2814-.2749-1.9031-.4287-.1741-.0431-.3467-.0858-.5176-.1271-.792-.1917-1.5612-.3584-2.3362-.4268-.2751-.0242-.4784-.2669-.4542-.542ZM36.784 95.3872c.1325-.2423.4363-.3313.6786-.1989 1.3598.7434 2.546 1.7712 3.6737 2.7484.218.1888.4337.3758.6481.5584.2102.1791.2355.4947.0564.7049-.1791.2102-.4946.2354-.7048.0564-.228-.1942-.4529-.3888-.6763-.5822-1.1284-.9766-2.2198-1.9213-3.4768-2.6084-.2423-.1325-.3313-.4363-.1989-.6786Z" clip-rule="evenodd"/>
  <path fill="#fff" d="M131.26 46.52c0 20.7098-17.084 37.4985-38.1582 37.4985-21.0743 0-38.1584-16.7887-38.1584-37.4985 0-20.7099 17.0841-37.49852 38.1584-37.49852 21.0742 0 38.1582 16.78862 38.1582 37.49852Z"/>
  <path fill="#FFCDE4" d="M79.6074 49.5186h8.8213v29.8982h-8.8213V49.5186Zm32.0056-9.9522h8.821v39.1718h-8.821V39.5664Z"/>
  <path fill="#F6F1FF" d="M62.7656 59.1111h8.8213v13.3866h-8.8213V59.1111Zm32.6179-14.0408h8.8215v35.9466h-8.8215V45.0703Z"/>
  <path fill="#000" fill-rule="evenodd" d="M62.2387 58.2607c.2762.0012.4991.226.4979.5022-.0183 4.2681-.0118 9.4001-.0057 14.2217.0029 2.2969.0057 4.5234.0057 6.5524 0 .2762-.2239.5-.5.5-.2762 0-.5-.2238-.5-.5 0-2.0263-.0028-4.2511-.0057-6.5471-.0061-4.8231-.0126-9.9604.0057-14.2313.0012-.2761.226-.499.5021-.4979Z" clip-rule="evenodd"/>
  <path fill="#000" fill-rule="evenodd" d="M72.7954 58.408c.0444.2726-.1406.5295-.4131.5739-3.5302.5747-6.8303.4125-10.3867.0032-.2743-.0316-.4711-.2796-.4395-.5539.0315-.2743.2795-.4711.5539-.4396 3.5176.4049 6.713.5566 10.1116.0033.2725-.0444.5294.1406.5738.4131Z" clip-rule="evenodd"/>
  <path fill="#000" fill-rule="evenodd" d="M72.2655 57.9902c.2761 0 .5.2237.5001.4999.0011 3.7504.0011 8.3024.001 12.311 0 4.2114 0 7.823.0012 9.2744.0003.2762-.2234.5002-.4995.5005-.2762.0002-.5002-.2234-.5005-.4996-.0012-1.4517-.0012-5.0641-.0012-9.2763.0001-4.0086.0001-8.5603-.001-12.3097-.0001-.2762.2237-.5001.4999-.5002Zm6.7752-9.4257c.2762.0007.4994.2252.4986.5014-.0182 6.4524-.0118 14.2115-.0057 21.4998.0029 3.4714.0057 6.836.0057 9.9017 0 .2761-.2239.5-.5.5s-.5-.2239-.5-.5c0-3.0639-.0028-6.4274-.0057-9.8982-.0061-7.2893-.0125-15.052.0057-21.5062.0008-.2761.2253-.4993.5014-.4985Z" clip-rule="evenodd"/>
  <path fill="#000" fill-rule="evenodd" d="M89.5902 48.534c.066.2681-.0979.539-.366.605-3.5617.8764-6.8885.6274-10.4543.007-.2721-.0473-.4543-.3062-.4069-.5783.0473-.272.3062-.4542.5783-.4069 3.5081.6104 6.6769.8357 10.0439.0071.2682-.066.539.0979.605.3661Z" clip-rule="evenodd"/>
  <path fill="#000" fill-rule="evenodd" d="M89.0683 48.1572c.2761 0 .5.2238.5001.4999.001 5.6682.001 12.5485.001 18.6073-.0001 6.3658-.0001 11.8249.0012 14.0189.0001.2762-.2236.5001-.4997.5003-.2762.0002-.5002-.2236-.5003-.4997-.0013-2.1941-.0013-7.6539-.0012-14.0202 0-6.0589 0-12.9388-.001-18.6064-.0001-.2761.2237-.5.4999-.5001Zm5.6363-3.6631c.2762.0007.4995.2251.4988.5013-.0183 7.3789-.0118 16.2524-.0057 24.5871.0029 3.9697.0057 7.8171.0057 11.3227 0 .2761-.2239.5-.5.5-.2762 0-.5-.2239-.5-.5 0-3.504-.0028-7.3505-.0057-11.3196-.0061-8.3357-.0126-17.2122.0057-24.5927.0007-.2761.2251-.4994.5012-.4988Z" clip-rule="evenodd"/>
  <path fill="#000" fill-rule="evenodd" d="M105.25 44.3881c.075.2658-.08.542-.346.6168-3.574 1.0058-6.9122.7192-10.4819.0091-.2709-.0539-.4467-.3172-.3929-.588.0539-.2708.3172-.4467.588-.3928 3.5043.6971 6.6618.953 10.0158.0091.266-.0748.542.08.617.3458Z" clip-rule="evenodd"/>
  <path fill="#000" fill-rule="evenodd" d="M104.732 44.0273c.276 0 .5.2238.5.5.002 6.4818.001 14.3497.001 21.2783 0 7.2798 0 13.5227.002 16.0316 0 .2762-.224.5001-.5.5003-.276.0001-.5-.2236-.5-.4998-.002-2.509-.002-8.7525-.002-16.0326 0-6.9287.001-14.7964-.001-21.2777 0-.2761.224-.5.5-.5001Zm6.306-4.7841c.277.0005.5.2248.499.501-.018 9.1904-.011 20.2426-.005 30.6233.003 4.9439.005 9.7355.005 14.1012 0 .2761-.224.5-.5.5s-.5-.2239-.5-.5c0-4.3644-.002-9.1552-.005-14.0987-.006-10.3815-.013-21.4361.005-30.6278.001-.2762.225-.4996.501-.499Z" clip-rule="evenodd"/>
  <path fill="#000" fill-rule="evenodd" d="M121.575 38.992c.091.2606-.046.5459-.307.6372-3.598 1.261-6.958.8998-10.535.0135-.268-.0664-.431-.3376-.365-.6056.067-.268.338-.4315.606-.3651 3.497.8665 6.633 1.1809 9.963.0135.261-.0913.546.0459.638.3065Z" clip-rule="evenodd"/>
  <path fill="#000" fill-rule="evenodd" d="M121.066 38.6621c.276 0 .5.2238.5.4999.001 8.0727.001 17.8717.001 26.501 0 9.0667 0 16.8421.002 19.9669 0 .2762-.224.5001-.5.5002-.276.0001-.5-.2236-.5-.4998-.002-3.1249-.002-10.9006-.002-19.9676 0-8.6293 0-18.4283-.001-26.5005 0-.2762.224-.5001.5-.5001Z" clip-rule="evenodd"/>
  <path fill="#fff" d="M153.632 143.859c.478-1.849 2.933-10.613 4.101-14.763l4.474.373 14.16 16.998-6.808-1.912c-9.991-2.163-15.032 11.681-16.598 10.935-1.566-.745.075-9.32.671-11.631Z"/>
  <path fill="#F6F1FF" fill-rule="evenodd" d="m123.579 79.9254 52.697 76.9916-9.068 4.534-53.96-75.9628c-20.6975 6.9743-47.7563 3.0735-58.4432-13.4739C13.4266 7.94513 93.0281-18.7552 127.328 17.2885c26.25 27.5853 8.343 55.8357-3.749 62.6369Zm-33.9388-.5085C109.614 80.6378 130.54 65.1958 130.54 46.0535c0-19.1422-21.577-35.9567-40.8998-35.9567-19.3231 0-34.9876 15.5178-34.9876 34.66 0 19.1423 18.5112 33.653 34.9876 34.6601Z" clip-rule="evenodd"/>
  <path fill="#fff" d="M144.706 129.27c1.12-.51 7.763-4.457 6.55-5.415-.14-.252-.645-.113-9.414 1.388l2.864 4.027Z"/>
  <path fill="#000" fill-rule="evenodd" d="M128.933 55.4504c-1.893 5.4771-5.732 10.8345-11.976 15.7274-18.3051 14.3438-37.9707 10.1027-50.3435-1.2289-6.6747-6.1129-11.2582-14.3275-12.3471-22.8159-.0732.636-.1407 1.2812-.2022 1.9359-.0258.2749-.2696.4768-.5445.451-.275-.0258-.4769-.2696-.4511-.5446.2419-2.5747.5751-5.01.9925-7.3106.2136-3.8665 1.2084-7.709 3.1155-11.3566 3.7549-9.7151 9.5428-15.8473 16.3026-19.1208C83.8136 6.18269 96.263 7.93848 106.838 13.519c10.574 5.5805 19.378 15.0382 22.405 25.5993 1.516 5.2883 1.582 10.854-.31 16.3321ZM60.2911 25.8513c3.5665-6.7555 8.3127-11.192 13.624-13.764 9.9587-4.82268 22.0611-3.16943 32.4559 2.3161 10.394 5.4855 18.976 14.7508 21.911 24.9905 1.465 5.1121 1.524 10.4662-.294 15.7299-1.819 5.2648-5.528 10.4712-11.648 15.2669-17.867 14.0006-36.9869 9.8696-49.0511-1.1792-7.9377-7.2697-12.775-17.4779-12.2254-27.4721.7499-4.1017 1.7696-7.7557 3.0154-10.9942.7315-1.3977 1.6014-2.7644 2.6173-4.0898.168-.2192.1265-.533-.0927-.701-.0932-.0714-.2035-.105-.3124-.1031Z" clip-rule="evenodd"/>
  <path fill="#000" fill-rule="evenodd" d="M88.2499.0962376C103.786.0974956 119.014 6.2761 129.092 17.1189c10.093 10.8596 14.993 26.3727 9.89 44.9465l-.004.0148-.005.0146c-3.245 9.4793-11.821 17.3975-22.377 22.3762-10.562 4.9818-23.1815 7.0577-34.6105 4.7827-14.1107-2.809-27.2765-13.02-33.8189-26.9349-5.8713-12.4876-6.4007-27.9409 2.4601-43.6779-3.5904 4.6752-6.0762 10.2085-6.8688 16.5112-.0345.2739-.2845.4681-.5585.4337-.274-.0345-.4682-.2845-.4337-.5585 1.0829-8.6102 5.2288-15.8055 10.9892-21.3815.1155-.1672.2321-.3345.3498-.5017.0967-.1373.25-.2112.406-.2122 1.5462-1.4251 3.199-2.7383 4.9324-3.93594C68.0673 3.03751 78.7174-.0837641 88.2499.0962376ZM54.5222 14.2946c-11.7862 17.117-11.7788 34.1395-5.4507 47.5987 6.4106 13.6346 19.3173 23.6341 33.1093 26.3796 11.1894 2.2274 23.5912.1978 33.9892-4.7064 10.399-4.9047 18.719-12.6473 21.852-21.781 5.005-18.2336.191-33.3834-9.663-43.9858-9.871-10.62089-24.826-16.70346-40.1139-16.70346h-.0095v-.00009C78.9155.919075 68.4681 3.97607 60.0115 9.81869c-1.9497 1.34711-3.7919 2.84091-5.4893 4.47591Z" clip-rule="evenodd"/>
  <path fill="#000" fill-rule="evenodd" d="M123.414 80.3984c.227-.1574.539-.1011.696.1258l52.206 75.2458c.158.227.102.538-.125.696-.227.157-.539.101-.696-.126l-52.207-75.2458c-.157-.2268-.101-.5384.126-.6958Zm-10.06 4.4067c.226-.1585.538-.1038.696.1223l53.392 76.1436c.158.226.104.538-.122.697-.226.158-.538.103-.697-.123l-53.392-76.1434c-.158-.2261-.103-.538.123-.6965Z" clip-rule="evenodd"/>
  <path fill="#000" fill-rule="evenodd" d="M177.1 155.725c.14.238.06.545-.178.685l-9.157 5.38c-.238.139-.544.06-.684-.178s-.061-.545.178-.685l9.156-5.38c.239-.139.545-.06.685.178Z" clip-rule="evenodd"/>
  <path fill="#fff" d="M148.499 138.483c.691-6.073 4.837-12.781 6.823-15.376.624.246-6.014-3.842-6.823-8.483-.827-4.744 4.145-11.122 15.462-4.449 9.99 5.891 1.148 13.92-1.148 13.92-.49 2.407 25.19 27.828 24.395 29.992-28.413-15.604-27.614-24.428-28.413-23.965-4.382 2.537-8.182 11.852-9.815 16.241-.449-.096-1.173-1.807-.481-7.88Z"/>
  <path fill="#000" fill-rule="evenodd" d="M156.408 122.531c.166.221.121.534-.1.7-1.047.787-2.054 2.166-2.973 3.928-.914 1.753-1.718 3.841-2.379 5.999-1.325 4.326-2.052 8.852-1.96 11.411.002.054.004.106.007.154.345-.575.79-1.499 1.347-2.653.207-.431.43-.894.669-1.382.93-1.9 2.076-4.135 3.425-6.204 1.345-2.063 2.914-3.996 4.7-5.265.225-.16.537-.107.697.118.16.225.107.537-.118.697-1.637 1.163-3.123 2.975-4.441 4.996-1.314 2.016-2.439 4.206-3.364 6.097-.223.455-.435.896-.637 1.315-.624 1.295-1.145 2.375-1.538 2.986-.131.203-.272.394-.423.527-.123.109-.448.342-.818.142-.154-.084-.245-.213-.298-.314-.055-.104-.09-.219-.116-.33-.051-.222-.079-.508-.091-.849-.098-2.713.661-7.359 2.003-11.739.673-2.197 1.498-4.346 2.448-6.168.945-1.813 2.036-3.347 3.26-4.266.22-.166.534-.121.7.1Zm-7.767 22.689c0-.001.002-.002.006-.004-.004.003-.006.004-.006.004Z" clip-rule="evenodd"/>
  <path fill="#000" fill-rule="evenodd" d="M156.059 107.601c-2.718-.108-5.31 1.029-7.017 4.168-.972 1.786-.369 4.158 1.095 6.347 1.454 2.174 3.631 3.967 5.44 4.55.263.084.407.366.323.629-.085.263-.367.407-.63.323-2.083-.671-4.425-2.645-5.964-4.946-1.528-2.284-2.388-5.091-1.143-7.381 1.898-3.49 4.857-4.811 7.935-4.69 3.042.121 6.168 1.643 8.524 3.762 2.348 2.111 4.02 4.9 3.999 7.622-.021 2.79-1.812 5.323-5.975 6.875-.258.096-.546-.035-.643-.294-.096-.259.035-.546.294-.643 3.9-1.454 5.307-3.69 5.324-5.946.018-2.325-1.434-4.862-3.668-6.871-2.226-2.002-5.139-3.396-7.894-3.505Z" clip-rule="evenodd"/>
  <path fill="#000" fill-rule="evenodd" d="M161.809 123.633c.204-.186.52-.171.706.034 12.161 13.403 19.126 21.316 22.596 25.66.868 1.087 1.523 1.957 1.988 2.638.455.668.757 1.194.879 1.582.057.181.11.435.016.678-.122.314-.403.427-.63.444-.201.015-.412-.034-.6-.095-.197-.065-.419-.159-.657-.274-.942-.455-2.323-1.322-3.9-2.332-.29-.186-.587-.377-.89-.572-1.359-.874-2.84-1.825-4.332-2.728-1.826-1.105-3.653-2.125-5.273-2.83-1.647-.716-2.984-1.061-3.873-.927-.273.041-.528-.147-.568-.421-.041-.273.147-.527.42-.568 1.194-.179 2.764.279 4.42.999 1.682.731 3.553 1.779 5.392 2.891 1.505.911 2.999 1.872 4.359 2.746.302.194.597.384.885.568 1.593 1.021 2.919 1.85 3.795 2.273.136.066.256.119.361.161-.122-.244-.324-.582-.63-1.031-.445-.652-1.082-1.5-1.943-2.578-3.447-4.315-10.39-12.204-22.556-25.612-.185-.205-.17-.521.035-.706Zm-12.455-13.246c.276 0 .5.224.5.5 0 1.976 1.102 3.674 2.735 4.899 1.635 1.226 3.749 1.932 5.639 1.932.276 0 .5.224.5.5s-.224.5-.5.5c-2.115 0-4.438-.782-6.239-2.132-1.804-1.353-3.135-3.32-3.135-5.699 0-.276.223-.5.5-.5Zm4.746 31.479c.262.088.403.372.315.633-.181.538-.419 1.688-.652 3.137-.23 1.436-.448 3.13-.593 4.731-.146 1.606-.216 3.098-.157 4.142.023.406.064.716.116.928.138-.176.31-.422.509-.725.409-.622.908-1.451 1.417-2.327 1.017-1.75 2.058-3.66 2.458-4.414.129-.244.431-.337.676-.208.244.13.337.432.207.676-.404.764-1.452 2.686-2.476 4.449-.512.88-1.022 1.728-1.446 2.373-.211.321-.405.6-.572.811-.082.105-.165.201-.244.279-.065.065-.177.169-.319.224-.247.094-.516.069-.738-.098-.185-.14-.29-.343-.355-.515-.134-.353-.201-.848-.232-1.397-.063-1.118.013-2.669.16-4.289.148-1.625.369-3.341.602-4.798.231-1.444.481-2.671.691-3.297.088-.262.372-.403.633-.315Zm-1.179 13.805s.001 0 .002-.001c-.001.001-.002.001-.002.001Zm-7.4-30.554c-1.008.174-2.196.379-3.595.618-.272.046-.53-.136-.577-.409-.047-.272.136-.53.409-.577 1.389-.237 2.571-.441 3.578-.615 2.168-.373 3.523-.606 4.373-.737.613-.095 1-.142 1.247-.143.122-.001.264.008.397.061.123.048.213.122.278.203.124.118.214.267.252.444.042.195.012.382-.041.539-.102.302-.324.599-.572.87-.507.553-1.294 1.177-2.125 1.767-1.664 1.18-3.633 2.313-4.232 2.586-.252.114-.548.003-.662-.248-.115-.252-.003-.548.248-.663.521-.236 2.433-1.331 4.067-2.491.819-.581 1.535-1.155 1.967-1.627.173-.189.276-.335.329-.437-.181.011-.485.048-1.001.127-.841.13-2.182.361-4.34.732Z" clip-rule="evenodd"/>
  <path fill="#FF479F" d="M101.347 27.3882 63.8086 48.718l.6897-4.7609 34.4633-19.1645-3.1979-1.6067c5.0433-.9371 15.0933-2.5591 14.9473-1.5511-.146 1.008-7.197 7.6242-10.705 10.8063l1.341-5.0529Z"/>
  <path fill="#000" fill-rule="evenodd" d="M99.3278 24.7211c.1225.2475.0211.5474-.2264.6699-6.2412 3.0876-12.0504 6.3499-17.7492 9.5886-.581.3301-1.1608.6601-1.7399.9896-5.0979 2.9006-10.1347 5.7666-15.3284 8.4441-.2455.1266-.547.0302-.6736-.2153-.1265-.2454-.0301-.547.2154-.6735 5.1742-2.6675 10.1927-5.523 15.2931-8.4251.5786-.3292 1.1583-.659 1.7393-.9892 5.6998-3.2393 11.5307-6.5141 17.7999-9.6156.2475-.1224.5474-.021.6698.2265Z" clip-rule="evenodd"/>
  <path fill="#000" fill-rule="evenodd" d="M97.3296 23.3973c.6343.2612 1.37.6178 2.1875 1.1045.2373.1412.3152.4481.1739.6854-.1413.2373-.4481.3151-.6854.1738-2.1166-1.26-3.6166-1.5778-4.117-1.6561-.0629-.0099-.1108-.016-.1431-.0199l-.0391-.0044-.016-.0018-.0123-.0015c-.0031-.0004-.0174-.0023-.0342-.0057-.0036-.0007-.035-.0066-.0725-.0202-.0253-.0099-.0991-.0487-.1449-.0817-.0965-.1041-.1806-.4576-.0987-.6699.0769-.0887.2152-.1778.2599-.1946.023-.0068.0601-.0154.074-.0178.0239-.0039.043-.0051.0482-.0055.0139-.0008.0253-.001.028-.001l.0115-.0001.0349.0002c.0274.0001.0716 0 .1336-.0015.2482-.0063.7972-.0368 1.6959-.1804.6318-.101 1.2406-.1985 1.8267-.2924 3.7195-.5959 6.5245-1.0453 8.5015-1.301 1.143-.1477 2.029-.2336 2.665-.2433.316-.0048.593.0086.817.051.197.037.479.1172.654.3512.128.1725.131.3623.115.4803-.016.1203-.059.2335-.103.3288-.09.1932-.238.4197-.427.6726-.382.5117-.995 1.2174-1.852 2.1305-1.718 1.8303-4.458 4.5407-8.396 8.2885-.134.1268-.326.1702-.5005.113-.1748-.0572-.3041-.2057-.3367-.3868-.2514-1.3984.2442-2.6619.7062-3.6255.104-.217.201-.4089.29-.5853.034-.0672.067-.1321.099-.1954-5.3278 3.4887-11.5705 6.9187-17.5825 10.2209l-.0262.0144c-6.4485 3.542-12.622 6.9328-17.1751 10.1119-.025.0174-.0515.0326-.0792.0452-.5617.2555-1.1004.4284-1.5597.3472-.2549-.0451-.4789-.1668-.6501-.3683-.1622-.191-.2535-.4257-.3066-.665-.1038-.4676-.0908-1.0943-.0233-1.8426.0686-.7611.2003-1.7067.3641-2.8371.0395-.2733.2932-.4628.5665-.4232.2733.0396.4627.2933.4231.5665-.1644 1.1348-.2919 2.0538-.3578 2.7836-.0669.7426-.0636 1.2331.0036 1.5361.0325.146.0719.2099.0926.2342.0117.0138.0228.0241.0621.0311.1259.0222.4014-.0178.9305-.2543 4.5934-3.2021 10.7876-6.6044 17.1877-10.1198l.0664-.0364c6.4547-3.5454 13.1219-7.2096 18.6409-10.9277.132-.0892.299-.1098.449-.0556.15.0542.265.1768.31.3299.066.2253.048.4511.006.6469-.043.1972-.118.399-.203.5943-.098.2249-.232.4895-.368.7597-.088.1745-.177.3513-.258.5212-.298.6208-.561 1.2795-.647 1.9665 3.501-3.3445 5.965-5.7911 7.543-7.4725.851-.9064 1.433-1.5788 1.779-2.0439.08-.1067.144-.1981.194-.2756-.114-.0091-.257-.0133-.433-.0106-.575.0088-1.414.0881-2.551.2352-1.962.2536-4.748.7-8.4718 1.2965-.4117.066-.8349.1337-1.2696.2033Zm-2.5282-.7123s.0012.0001.0032.0003l-.0032-.0003Zm-.0523.9958c-.0033.0001-.0033 0 0 0Z" clip-rule="evenodd"/>
</svg>
