<svg width="288" height="45" viewBox="0 0 288 45" fill="none" xmlns="http://www.w3.org/2000/svg">
<path d="M0 1.13375V42.1206C0 42.6772 0.664004 42.9635 1.06663 42.5805L13.4714 30.7821C13.7216 30.5442 14.1156 30.5513 14.3571 30.798L26.6982 43.4053C26.817 43.5266 26.9795 43.595 27.1491 43.595H35.92C36.483 43.595 36.7649 42.9124 36.3668 42.5131L14.3264 20.4066C14.0968 20.1764 13.7307 20.1581 13.4795 20.3643L9.67324 23.4878C9.26068 23.8264 8.64127 23.5319 8.64127 22.9973V10.5232C8.64127 10.1732 8.92416 9.88941 9.27312 9.88941H21.8116C22.3668 9.88941 22.6521 10.556 22.2697 10.9597L19.117 14.2883C18.8932 14.5245 18.8845 14.8924 19.0969 15.139L22.8277 19.4718C23.0718 19.7553 23.5065 19.7657 23.7638 19.4942L32.6357 10.1335C36.0787 6.50084 33.5113 0.5 28.5141 0.5H0.631857C0.282892 0.5 0 0.78374 0 1.13375Z" fill="url(#paint0_linear_19_295)"/>
<path d="M60.4148 17.6303C61.1477 16.503 62.0639 15.6209 63.1633 14.9837C64.2628 14.3221 65.4844 13.9913 66.8281 13.9913V20.6444H65.1057C63.542 20.6444 62.3693 20.9874 61.5875 21.6736C60.8057 22.3352 60.4148 23.5115 60.4148 25.2023V34.7225H54.148V14.2118H60.4148V17.6303Z" fill="#0B0B0D"/>
<path d="M89.1002 24.1363C89.1002 24.7245 89.0636 25.3371 88.9903 25.9742H74.8076C74.9053 27.2485 75.3084 28.2287 76.017 28.9148C76.7499 29.5765 77.6417 29.9073 78.6922 29.9073C80.2559 29.9073 81.3431 29.2456 81.9539 27.9224H88.6238C88.2817 29.2701 87.6587 30.4831 86.7547 31.5614C85.8752 32.6396 84.7635 33.485 83.4198 34.0976C82.076 34.7103 80.5735 35.0166 78.9121 35.0166C76.9087 35.0166 75.1252 34.5877 73.5616 33.73C71.9979 32.8724 70.7763 31.6471 69.8968 30.0543C69.0172 28.4615 68.5775 26.5991 68.5775 24.4672C68.5775 22.3352 69.005 20.4728 69.8601 18.88C70.7397 17.2872 71.9613 16.0619 73.5249 15.2043C75.0885 14.3466 76.8843 13.9178 78.9121 13.9178C80.8911 13.9178 82.6502 14.3343 84.1894 15.1675C85.7286 16.0007 86.9258 17.1892 87.7809 18.733C88.6604 20.2768 89.1002 22.0779 89.1002 24.1363ZM82.6868 22.4823C82.6868 21.404 82.3204 20.5464 81.5874 19.9092C80.8545 19.2721 79.9383 18.9535 78.8388 18.9535C77.7883 18.9535 76.8965 19.2598 76.1635 19.8725C75.455 20.4851 75.0153 21.355 74.8442 22.4823H82.6868Z" fill="#0B0B0D"/>
<path d="M100.725 35.0166C98.9417 35.0166 97.3537 34.7103 95.961 34.0976C94.5684 33.485 93.469 32.6518 92.6628 31.5981C91.8565 30.5199 91.4045 29.3192 91.3068 27.9959H97.5003C97.5735 28.7065 97.9034 29.2824 98.4897 29.7235C99.0761 30.1646 99.7968 30.3851 100.652 30.3851C101.434 30.3851 102.032 30.2381 102.448 29.944C102.887 29.6255 103.107 29.2211 103.107 28.731C103.107 28.1429 102.802 27.7141 102.191 27.4445C101.58 27.1505 100.591 26.8319 99.2227 26.4888C97.7568 26.1458 96.5352 25.7904 95.5579 25.4229C94.5807 25.0308 93.7377 24.4304 93.0292 23.6217C92.3207 22.7886 91.9664 21.6736 91.9664 20.2768C91.9664 19.1006 92.2841 18.0346 92.9193 17.0789C93.5789 16.0987 94.5318 15.3268 95.7778 14.7632C97.0483 14.1996 98.5508 13.9178 100.285 13.9178C102.851 13.9178 104.866 14.5549 106.332 15.8291C107.823 17.1034 108.678 18.7943 108.898 20.9017H103.107C103.01 20.191 102.692 19.6274 102.155 19.2108C101.641 18.7943 100.957 18.586 100.102 18.586C99.3693 18.586 98.8074 18.733 98.4164 19.0271C98.0255 19.2966 97.8301 19.6764 97.8301 20.1665C97.8301 20.7547 98.1355 21.1957 98.7463 21.4898C99.3815 21.7839 100.359 22.0779 101.678 22.372C103.193 22.7641 104.427 23.1561 105.38 23.5482C106.332 23.9158 107.163 24.5284 107.872 25.3861C108.605 26.2193 108.983 27.3465 109.008 28.7678C109.008 29.9685 108.666 31.0468 107.982 32.0024C107.322 32.9336 106.357 33.6688 105.086 34.2079C103.84 34.747 102.387 35.0166 100.725 35.0166Z" fill="#0B0B0D"/>
<path d="M119.108 17.1157C119.719 16.16 120.562 15.3881 121.637 14.7999C122.712 14.2118 123.97 13.9178 125.412 13.9178C127.098 13.9178 128.625 14.3466 129.993 15.2043C131.361 16.0619 132.436 17.2872 133.218 18.88C134.024 20.4728 134.427 22.323 134.427 24.4304C134.427 26.5378 134.024 28.4002 133.218 30.0175C132.436 31.6104 131.361 32.8479 129.993 33.73C128.625 34.5877 127.098 35.0166 125.412 35.0166C123.995 35.0166 122.737 34.7225 121.637 34.1344C120.562 33.5463 119.719 32.7866 119.108 31.8554V44.5H112.842V14.2118H119.108V17.1157ZM128.05 24.4304C128.05 22.8621 127.611 21.6368 126.731 20.7547C125.876 19.848 124.813 19.3946 123.543 19.3946C122.297 19.3946 121.234 19.848 120.354 20.7547C119.499 21.6613 119.072 22.8988 119.072 24.4672C119.072 26.0355 119.499 27.273 120.354 28.1797C121.234 29.0864 122.297 29.5397 123.543 29.5397C124.789 29.5397 125.852 29.0864 126.731 28.1797C127.611 27.2485 128.05 25.9987 128.05 24.4304Z" fill="#0B0B0D"/>
<path d="M147.023 35.0166C145.02 35.0166 143.212 34.5877 141.599 33.73C140.011 32.8724 138.753 31.6471 137.825 30.0543C136.921 28.4615 136.469 26.5991 136.469 24.4672C136.469 22.3597 136.933 20.5096 137.861 18.9168C138.79 17.2994 140.06 16.0619 141.673 15.2043C143.285 14.3466 145.093 13.9178 147.097 13.9178C149.1 13.9178 150.908 14.3466 152.521 15.2043C154.133 16.0619 155.403 17.2994 156.332 18.9168C157.26 20.5096 157.725 22.3597 157.725 24.4672C157.725 26.5746 157.248 28.437 156.295 30.0543C155.367 31.6471 154.084 32.8724 152.447 33.73C150.835 34.5877 149.027 35.0166 147.023 35.0166ZM147.023 29.5765C148.221 29.5765 149.234 29.1354 150.065 28.2532C150.92 27.371 151.348 26.109 151.348 24.4672C151.348 22.8253 150.932 21.5633 150.102 20.6811C149.296 19.799 148.294 19.3579 147.097 19.3579C145.875 19.3579 144.861 19.799 144.055 20.6811C143.249 21.5388 142.846 22.8008 142.846 24.4672C142.846 26.109 143.236 27.371 144.018 28.2532C144.824 29.1354 145.826 29.5765 147.023 29.5765Z" fill="#0B0B0D"/>
<path d="M173.509 13.9913C175.904 13.9913 177.809 14.7754 179.226 16.3438C180.668 17.8876 181.389 20.0195 181.389 22.7396V34.7225H175.158V23.585C175.158 22.2127 174.804 21.1467 174.096 20.3871C173.387 19.6274 172.434 19.2476 171.237 19.2476C170.04 19.2476 169.087 19.6274 168.379 20.3871C167.67 21.1467 167.316 22.2127 167.316 23.585V34.7225H161.049V14.2118H167.316V16.9319C167.951 16.0252 168.806 15.3145 169.881 14.7999C170.956 14.2608 172.166 13.9913 173.509 13.9913Z" fill="#0B0B0D"/>
<path d="M184.497 24.4304C184.497 22.323 184.888 20.4728 185.67 18.88C186.476 17.2872 187.564 16.0619 188.932 15.2043C190.3 14.3466 191.827 13.9178 193.513 13.9178C194.856 13.9178 196.078 14.1996 197.177 14.7632C198.301 15.3268 199.181 16.0864 199.816 17.0421V7.52195H206.083V34.7225H199.816V31.7819C199.23 32.7621 198.387 33.5463 197.287 34.1344C196.212 34.7225 194.954 35.0166 193.513 35.0166C191.827 35.0166 190.3 34.5877 188.932 33.73C187.564 32.8479 186.476 31.6104 185.67 30.0175C184.888 28.4002 184.497 26.5378 184.497 24.4304ZM199.816 24.4672C199.816 22.8988 199.376 21.6613 198.497 20.7547C197.642 19.848 196.591 19.3946 195.345 19.3946C194.099 19.3946 193.036 19.848 192.157 20.7547C191.302 21.6368 190.874 22.8621 190.874 24.4304C190.874 25.9987 191.302 27.2485 192.157 28.1797C193.036 29.0864 194.099 29.5397 195.345 29.5397C196.591 29.5397 197.642 29.0864 198.497 28.1797C199.376 27.273 199.816 26.0355 199.816 24.4672Z" fill="#0B0B0D"/>
<path d="M223.077 13.9913C225.471 13.9913 227.377 14.7754 228.794 16.3438C230.235 17.8876 230.956 20.0195 230.956 22.7396V34.7225H224.726V23.585C224.726 22.2127 224.372 21.1467 223.663 20.3871C222.955 19.6274 222.002 19.2476 220.805 19.2476C219.608 19.2476 218.655 19.6274 217.946 20.3871C217.238 21.1467 216.883 22.2127 216.883 23.585V34.7225H210.617V14.2118H216.883V16.9319C217.519 16.0252 218.374 15.3145 219.449 14.7999C220.524 14.2608 221.733 13.9913 223.077 13.9913Z" fill="url(#paint1_linear_19_295)"/>
<path d="M244.619 35.0166C242.616 35.0166 240.808 34.5877 239.196 33.73C237.607 32.8724 236.349 31.6471 235.421 30.0543C234.517 28.4615 234.065 26.5991 234.065 24.4672C234.065 22.3597 234.529 20.5096 235.457 18.9168C236.386 17.2994 237.656 16.0619 239.269 15.2043C240.881 14.3466 242.689 13.9178 244.693 13.9178C246.696 13.9178 248.504 14.3466 250.117 15.2043C251.729 16.0619 253 17.2994 253.928 18.9168C254.856 20.5096 255.321 22.3597 255.321 24.4672C255.321 26.5746 254.844 28.437 253.891 30.0543C252.963 31.6471 251.68 32.8724 250.043 33.73C248.431 34.5877 246.623 35.0166 244.619 35.0166ZM244.619 29.5765C245.817 29.5765 246.83 29.1354 247.661 28.2532C248.516 27.371 248.944 26.109 248.944 24.4672C248.944 22.8253 248.529 21.5633 247.698 20.6811C246.892 19.799 245.89 19.3579 244.693 19.3579C243.471 19.3579 242.457 19.799 241.651 20.6811C240.845 21.5388 240.442 22.8008 240.442 24.4672C240.442 26.109 240.832 27.371 241.614 28.2532C242.421 29.1354 243.422 29.5765 244.619 29.5765Z" fill="url(#paint2_linear_19_295)"/>
<path d="M288 14.2118L282.466 34.7225H275.54L272.315 21.4163L268.98 34.7225H262.09L256.52 14.2118H262.786L265.682 28.8781L269.126 14.2118H275.76L279.241 28.8045L282.1 14.2118H288Z" fill="url(#paint3_linear_19_295)"/>
<defs>
<linearGradient id="paint0_linear_19_295" x1="26.1818" y1="4" x2="36.1943" y2="70.4997" gradientUnits="userSpaceOnUse">
<stop stop-color="#A66FFF"/>
<stop offset="1" stop-color="#6500CB"/>
</linearGradient>
<linearGradient id="paint1_linear_19_295" x1="26.1818" y1="4" x2="36.1943" y2="70.4997" gradientUnits="userSpaceOnUse">
<stop stop-color="#A66FFF"/>
<stop offset="1" stop-color="#6500CB"/>
</linearGradient>
<linearGradient id="paint2_linear_19_295" x1="26.1818" y1="4" x2="36.1943" y2="70.4997" gradientUnits="userSpaceOnUse">
<stop stop-color="#A66FFF"/>
<stop offset="1" stop-color="#6500CB"/>
</linearGradient>
<linearGradient id="paint3_linear_19_295" x1="26.1818" y1="4" x2="36.1943" y2="70.4997" gradientUnits="userSpaceOnUse">
<stop stop-color="#A66FFF"/>
<stop offset="1" stop-color="#6500CB"/>
</linearGradient>
</defs>
</svg>
