<svg width="16" height="18" viewBox="0 0 16 18" fill="none" xmlns="http://www.w3.org/2000/svg">
<path d="M0 0.264256V17.3546C0 17.5866 0.277698 17.706 0.446086 17.5463L5.63401 12.6267C5.73861 12.5275 5.90341 12.5305 6.0044 12.6333L11.1657 17.8902C11.2154 17.9408 11.2833 17.9693 11.3542 17.9693H15.0224C15.2579 17.9693 15.3758 17.6847 15.2093 17.5182L5.99156 8.30047C5.89556 8.20447 5.74244 8.19683 5.63737 8.2828L4.04553 9.58522C3.87299 9.72638 3.61394 9.60363 3.61394 9.38069V4.17936C3.61394 4.03341 3.73225 3.9151 3.87819 3.9151H9.12203C9.3542 3.9151 9.47352 4.19304 9.31361 4.36136L7.99508 5.74929C7.9015 5.84779 7.89787 6.0012 7.98667 6.10402L9.54696 7.91067C9.64905 8.02888 9.83086 8.03322 9.93847 7.92001L13.6488 4.0169C15.0888 2.50217 14.015 0 11.9251 0H0.264255C0.118311 0 0 0.118312 0 0.264256Z" fill="url(#paint0_linear_174_10091)"/>
<defs>
<linearGradient id="paint0_linear_174_10091" x1="1.58794" y1="1.42938" x2="15.4735" y2="15.1256" gradientUnits="userSpaceOnUse">
<stop stop-color="#A66FFF"/>
<stop offset="1" stop-color="#6500CB"/>
</linearGradient>
</defs>
</svg>
