<svg width="118" height="20" viewBox="0 0 118 20" fill="none" xmlns="http://www.w3.org/2000/svg">
<path d="M5.07487 6.64941C5.43403 6.09869 5.88299 5.66769 6.42174 5.35642C6.96048 5.03317 7.55909 4.87154 8.21756 4.87154V8.12199H7.37352C6.60731 8.12199 6.03264 8.2896 5.64953 8.62482C5.26642 8.94807 5.07487 9.52273 5.07487 10.3488V15H2.00401V4.97929H5.07487V6.64941ZM19.1314 9.82802C19.1314 10.1154 19.1135 10.4147 19.0775 10.7259H12.1277C12.1756 11.3485 12.3731 11.8274 12.7203 12.1626C13.0795 12.4858 13.5165 12.6475 14.0313 12.6475C14.7975 12.6475 15.3302 12.3242 15.6296 11.6777H18.898C18.7303 12.3362 18.4251 12.9288 17.9821 13.4556C17.5511 13.9824 17.0064 14.3954 16.3479 14.6947C15.6894 14.994 14.9531 15.1437 14.139 15.1437C13.1573 15.1437 12.2833 14.9342 11.5171 14.5151C10.7509 14.0961 10.1523 13.4975 9.72129 12.7193C9.29029 11.9411 9.07479 11.0312 9.07479 9.98965C9.07479 8.94807 9.2843 8.03818 9.70333 7.25999C10.1343 6.4818 10.7329 5.88319 11.4992 5.46417C12.2654 5.04514 13.1453 4.83563 14.139 4.83563C15.1088 4.83563 15.9708 5.03915 16.725 5.44621C17.4793 5.85326 18.0659 6.43391 18.4849 7.18816C18.9159 7.94241 19.1314 8.82236 19.1314 9.82802ZM15.9887 9.0199C15.9887 8.49313 15.8091 8.0741 15.45 7.76282C15.0908 7.45155 14.6418 7.29591 14.1031 7.29591C13.5883 7.29591 13.1513 7.44556 12.7921 7.74487C12.445 8.04417 12.2295 8.46918 12.1456 9.0199H15.9887ZM24.828 15.1437C23.954 15.1437 23.1758 14.994 22.4934 14.6947C21.811 14.3954 21.2722 13.9884 20.8771 13.4735C20.4821 12.9468 20.2606 12.3601 20.2127 11.7136H23.2476C23.2836 12.0608 23.4452 12.3422 23.7325 12.5577C24.0198 12.7732 24.373 12.8809 24.792 12.8809C25.1752 12.8809 25.4685 12.8091 25.672 12.6654C25.8875 12.5098 25.9953 12.3122 25.9953 12.0728C25.9953 11.7855 25.8456 11.576 25.5463 11.4443C25.247 11.3006 24.7621 11.145 24.0917 10.9774C23.3733 10.8097 22.7747 10.6361 22.2959 10.4566C21.817 10.265 21.4039 9.97169 21.0567 9.57661C20.7095 9.16955 20.5359 8.62482 20.5359 7.94241C20.5359 7.36774 20.6916 6.84695 21.0029 6.38004C21.3261 5.90115 21.793 5.52403 22.4036 5.24867C23.0262 4.97331 23.7624 4.83563 24.6125 4.83563C25.8695 4.83563 26.8572 5.1469 27.5756 5.76946C28.3059 6.39201 28.7249 7.21809 28.8327 8.2477H25.9953C25.9474 7.9005 25.7917 7.62514 25.5283 7.42162C25.2769 7.21809 24.9417 7.11633 24.5227 7.11633C24.1635 7.11633 23.8881 7.18816 23.6966 7.33183C23.505 7.46352 23.4093 7.64909 23.4093 7.88853C23.4093 8.17586 23.5589 8.39136 23.8582 8.53503C24.1695 8.67869 24.6484 8.82236 25.2949 8.96603C26.0372 9.15758 26.6417 9.34914 27.1087 9.54069C27.5756 9.72027 27.9826 10.0196 28.3298 10.4386C28.689 10.8457 28.8746 11.3964 28.8865 12.0908C28.8865 12.6774 28.7189 13.2042 28.3837 13.6711C28.0605 14.126 27.5875 14.4852 26.965 14.7486C26.3544 15.012 25.6421 15.1437 24.828 15.1437ZM33.8361 6.398C34.1354 5.93108 34.5485 5.55396 35.0753 5.26663C35.602 4.97929 36.2186 4.83563 36.925 4.83563C37.751 4.83563 38.4993 5.04514 39.1697 5.46417C39.8402 5.88319 40.367 6.4818 40.7501 7.25999C41.1451 8.03818 41.3427 8.94208 41.3427 9.97169C41.3427 11.0013 41.1451 11.9112 40.7501 12.7013C40.367 13.4795 39.8402 14.0841 39.1697 14.5151C38.4993 14.9342 37.751 15.1437 36.925 15.1437C36.2306 15.1437 35.614 15 35.0753 14.7127C34.5485 14.4253 34.1354 14.0542 33.8361 13.5993V19.7769H30.7653V4.97929H33.8361V6.398ZM38.2179 9.97169C38.2179 9.20547 38.0024 8.60686 37.5715 8.17586C37.1524 7.73289 36.6316 7.51141 36.0091 7.51141C35.3985 7.51141 34.8777 7.73289 34.4467 8.17586C34.0277 8.61883 33.8182 9.22343 33.8182 9.98965C33.8182 10.7559 34.0277 11.3605 34.4467 11.8034C34.8777 12.2464 35.3985 12.4679 36.0091 12.4679C36.6197 12.4679 37.1405 12.2464 37.5715 11.8034C38.0024 11.3485 38.2179 10.7379 38.2179 9.97169ZM47.5151 15.1437C46.5334 15.1437 45.6475 14.9342 44.8573 14.5151C44.0791 14.0961 43.4626 13.4975 43.0076 12.7193C42.5646 11.9411 42.3432 11.0312 42.3432 9.98965C42.3432 8.96004 42.5706 8.05614 43.0256 7.27795C43.4805 6.48779 44.1031 5.88319 44.8932 5.46417C45.6834 5.04514 46.5693 4.83563 47.551 4.83563C48.5328 4.83563 49.4187 5.04514 50.2089 5.46417C50.999 5.88319 51.6216 6.48779 52.0765 7.27795C52.5315 8.05614 52.7589 8.96004 52.7589 9.98965C52.7589 11.0193 52.5255 11.9291 52.0586 12.7193C51.6036 13.4975 50.9751 14.0961 50.173 14.5151C49.3828 14.9342 48.4969 15.1437 47.5151 15.1437ZM47.5151 12.4858C48.1018 12.4858 48.5986 12.2703 49.0057 11.8393C49.4247 11.4083 49.6342 10.7918 49.6342 9.98965C49.6342 9.18751 49.4307 8.57094 49.0236 8.13995C48.6285 7.70895 48.1377 7.49345 47.551 7.49345C46.9524 7.49345 46.4556 7.70895 46.0605 8.13995C45.6654 8.55897 45.4679 9.17554 45.4679 9.98965C45.4679 10.7918 45.6594 11.4083 46.0426 11.8393C46.4376 12.2703 46.9285 12.4858 47.5151 12.4858ZM60.4939 4.87154C61.6672 4.87154 62.601 5.25465 63.2954 6.02087C64.0017 6.77512 64.3549 7.8167 64.3549 9.14561V15H61.302V9.55865C61.302 8.88821 61.1284 8.36742 60.7812 7.99628C60.434 7.62514 59.9671 7.43957 59.3805 7.43957C58.7939 7.43957 58.3269 7.62514 57.9797 7.99628C57.6326 8.36742 57.459 8.88821 57.459 9.55865V15H54.3881V4.97929H57.459V6.3082C57.7702 5.86523 58.1893 5.51804 58.716 5.26663C59.2428 5.00324 59.8354 4.87154 60.4939 4.87154ZM65.8783 9.97169C65.8783 8.94208 66.0698 8.03818 66.453 7.25999C66.848 6.4818 67.3808 5.88319 68.0512 5.46417C68.7217 5.04514 69.4699 4.83563 70.296 4.83563C70.9545 4.83563 71.5531 4.97331 72.0918 5.24867C72.6426 5.52403 73.0736 5.89516 73.3848 6.36208V1.71089H76.4557V15H73.3848V13.5633C73.0975 14.0422 72.6845 14.4253 72.1457 14.7127C71.6189 15 71.0024 15.1437 70.296 15.1437C69.4699 15.1437 68.7217 14.9342 68.0512 14.5151C67.3808 14.0841 66.848 13.4795 66.453 12.7013C66.0698 11.9112 65.8783 11.0013 65.8783 9.97169ZM73.3848 9.98965C73.3848 9.22343 73.1693 8.61883 72.7383 8.17586C72.3193 7.73289 71.8045 7.51141 71.1939 7.51141C70.5834 7.51141 70.0626 7.73289 69.6316 8.17586C69.2125 8.60686 69.003 9.20547 69.003 9.97169C69.003 10.7379 69.2125 11.3485 69.6316 11.8034C70.0626 12.2464 70.5834 12.4679 71.1939 12.4679C71.8045 12.4679 72.3193 12.2464 72.7383 11.8034C73.1693 11.3605 73.3848 10.7559 73.3848 9.98965Z" fill="#22222A"/>
<path d="M82.3083 3.97929V5.45187C82.9429 4.39832 83.9545 3.87154 85.3433 3.87154C86.4926 3.87154 87.4204 4.25465 88.1268 5.02087C88.8451 5.78709 89.2043 6.82867 89.2043 8.14561V14H86.1514V8.55865C86.1514 7.91215 85.9778 7.41531 85.6306 7.06811C85.2954 6.70895 84.8285 6.52937 84.2299 6.52937C83.6312 6.52937 83.1583 6.70895 82.8112 7.06811C82.4759 7.41531 82.3083 7.91215 82.3083 8.55865V14H79.2375V3.97929H82.3083ZM97.8278 10.8573C98.2348 10.4263 98.4383 9.80375 98.4383 8.98965C98.4383 8.17554 98.2288 7.55897 97.8098 7.13995C97.3908 6.70895 96.8939 6.49345 96.3193 6.49345C95.7446 6.49345 95.2478 6.70895 94.8287 7.13995C94.4217 7.55897 94.2182 8.17554 94.2182 8.98965C94.2182 9.80375 94.4277 10.4263 94.8467 10.8573C95.2777 11.2883 95.7805 11.5038 96.3552 11.5038C96.9299 11.5038 97.4207 11.2883 97.8278 10.8573ZM92.6019 12.707C91.5963 11.7612 91.0934 10.5161 91.0934 8.97169C91.0934 7.42728 91.5963 6.19415 92.6019 5.27229C93.6076 4.33846 94.8527 3.87154 96.3372 3.87154C97.8218 3.87154 99.0609 4.33846 100.055 5.27229C101.06 6.19415 101.563 7.42728 101.563 8.97169C101.563 10.5161 101.066 11.7612 100.073 12.707C99.0789 13.6528 97.8397 14.1257 96.3552 14.1257C94.8706 14.1257 93.6195 13.6528 92.6019 12.707ZM114.804 3.97929H117.695L114.696 14H111.392L109.991 8.07378L108.573 14H105.268L102.269 3.97929H105.34L106.902 11.0189L108.447 3.97929H111.697L113.242 11.0189L114.804 3.97929Z" fill="url(#paint0_linear_174_10092)"/>
<defs>
<linearGradient id="paint0_linear_174_10092" x1="81.527" y1="1.43182" x2="91.8373" y2="24.6806" gradientUnits="userSpaceOnUse">
<stop stop-color="#A66FFF"/>
<stop offset="1" stop-color="#6500CB"/>
</linearGradient>
</defs>
</svg>
