<?xml version="1.0" encoding="UTF-8"?>
<svg version="1.1" xmlns="http://www.w3.org/2000/svg" width="635" height="110">
<path d="M0 0 C0.88551752 -0.00235223 1.77103503 -0.00470446 2.68338642 -0.00712797 C5.6837025 -0.01384386 8.68397553 -0.01335897 11.68429852 -0.01294994 C13.84385723 -0.01624695 16.00341533 -0.01997217 18.16297263 -0.02409142 C24.12322646 -0.03413797 30.08347023 -0.03783246 36.04373133 -0.04048073 C42.46171571 -0.04437589 48.87969205 -0.0539547 55.29767132 -0.0626936 C70.07569413 -0.08154403 84.85371671 -0.09171696 99.63174865 -0.10015428 C106.93088467 -0.10435817 114.23001986 -0.10958048 121.52915518 -0.11483881 C146.50374123 -0.1327297 171.47832751 -0.14772707 196.45291901 -0.155159 C198.02130309 -0.15563376 199.58968718 -0.15610965 201.15807126 -0.15658666 C201.93586559 -0.15682303 202.71365991 -0.15705941 203.51502377 -0.15730295 C207.45586336 -0.15850418 211.39670295 -0.15971962 215.33754253 -0.16094494 C216.11962054 -0.16118509 216.90169854 -0.16142524 217.70747588 -0.16167267 C243.0741314 -0.16956862 268.44074021 -0.19300619 293.80737532 -0.22550088 C320.61225137 -0.25977543 347.41710007 -0.2795079 374.22199839 -0.28280324 C377.16282826 -0.28322079 380.10365811 -0.28370036 383.04448795 -0.28422642 C383.76862869 -0.28434961 384.49276943 -0.2844728 385.23885382 -0.28459973 C396.90718671 -0.28693464 408.57546547 -0.30261073 420.24377904 -0.32306826 C431.96549384 -0.34329387 443.68712814 -0.34848483 455.40885881 -0.33929763 C461.76281991 -0.33473549 468.11660474 -0.33674994 474.47054195 -0.35605907 C480.28176975 -0.37356711 486.09269107 -0.37279422 491.90392157 -0.35716178 C494.01161209 -0.35476681 496.11932316 -0.35920593 498.22698209 -0.37099043 C501.08210417 -0.38597148 503.93612077 -0.3765328 506.79121399 -0.36076355 C508.03166936 -0.37609686 508.03166936 -0.37609686 509.29718444 -0.39173993 C513.2606306 -0.34364073 515.14413999 -0.14667203 518.57144088 2.04015762 C522.41219575 6.03572284 521.7456645 10.01327899 521.76137066 15.27801991 C521.77122746 16.70018566 521.77122746 16.70018566 521.78128338 18.15108204 C521.80104133 21.29780621 521.8126842 24.44448262 521.82264996 27.59125233 C521.82672548 28.66436853 521.83080101 29.73748474 521.83500004 30.84311962 C521.85587087 36.52226412 521.87016853 42.20138439 521.87953472 47.88055897 C521.89060466 53.75199292 521.92500866 59.62304845 521.96470642 65.49434853 C521.99082774 70.00419803 521.99922255 74.51395673 522.0028162 79.02387524 C522.00769332 81.18844313 522.01933912 83.35300668 522.03785419 85.51750088 C522.06215112 88.54605352 522.06129778 91.57361879 522.05433941 94.60223866 C522.06714947 95.49749256 522.07995953 96.39274647 522.09315777 97.31512928 C522.0584489 101.45676107 521.92994863 103.58378803 519.67999554 107.16746998 C515.80448624 110.80464529 512.23007395 110.27744596 507.16873741 110.26844215 C505.84046114 110.2719705 505.84046114 110.2719705 504.485351 110.27557012 C501.48503492 110.28228602 498.48476188 110.28180113 495.4844389 110.2813921 C493.32488018 110.2846891 491.16532209 110.28841432 489.00576478 110.29253358 C483.04551095 110.30258012 477.08526718 110.30627462 471.12500608 110.30892289 C464.7070217 110.31281805 458.28904536 110.32239685 451.87106609 110.33113575 C437.09304328 110.34998618 422.3150207 110.36015911 407.53698877 110.36859643 C400.23785275 110.37280033 392.93871755 110.37802264 385.63958223 110.38328096 C360.66499618 110.40117186 335.6904099 110.41616923 310.71581841 110.42360115 C309.14743432 110.42407591 307.57905024 110.4245518 306.01066615 110.42502881 C305.23287182 110.42526519 304.4550775 110.42550156 303.65371365 110.4257451 C299.71287405 110.42694633 295.77203446 110.42816177 291.83119488 110.42938709 C290.65807787 110.42974732 290.65807787 110.42974732 289.46126153 110.43011482 C264.09460601 110.43801077 238.72799721 110.46144834 213.36136209 110.49394304 C186.55648605 110.52821758 159.75163734 110.54795005 132.94673902 110.55124539 C130.00590915 110.55166295 127.06507931 110.55214251 124.12424946 110.55266857 C123.40010872 110.55279176 122.67596799 110.55291495 121.92988359 110.55304188 C110.2615507 110.55537679 98.59327194 110.57105288 86.92495837 110.59151042 C75.20324357 110.61173603 63.48160927 110.61692699 51.7598786 110.60773978 C45.4059175 110.60317764 39.05213268 110.60519209 32.69819546 110.62450123 C26.88696766 110.64200926 21.07604634 110.64123637 15.26481584 110.62560394 C13.15712532 110.62320897 11.04941426 110.62764808 8.94175532 110.63943259 C6.08663325 110.65441363 3.23261664 110.64497496 0.37752342 110.6292057 C-0.86293195 110.64453901 -0.86293195 110.64453901 -2.12844703 110.66018209 C-6.09189319 110.61208289 -7.97540258 110.41511419 -11.40270346 108.22828454 C-15.24345833 104.23271931 -14.57692709 100.25516316 -14.59263325 94.99042225 C-14.59920444 94.04231174 -14.60577564 93.09420124 -14.61254597 92.11736012 C-14.63230392 88.97063594 -14.64394678 85.82395953 -14.65391254 82.67718983 C-14.65798807 81.60407362 -14.6620636 80.53095741 -14.66626263 79.42532253 C-14.68713346 73.74617803 -14.70143112 68.06705777 -14.71079731 62.38788319 C-14.72186725 56.51644924 -14.75627125 50.6453937 -14.79596901 44.77409363 C-14.82209033 40.26424413 -14.83048514 35.75448542 -14.83407879 31.24456692 C-14.8389559 29.07999902 -14.85060171 26.91543548 -14.86911678 24.75094128 C-14.89341371 21.72238864 -14.89256037 18.69482337 -14.885602 15.6662035 C-14.89841206 14.77094959 -14.91122211 13.87569569 -14.92442036 12.95331287 C-14.88971148 8.81168108 -14.76121122 6.68465412 -12.51125813 3.10097218 C-8.63574883 -0.53620313 -5.06133654 -0.00900381 0 0 Z " fill="#FDFDFD" transform="translate(14.415631294250488,-0.13422107696533203)"/>
<path d="M0 0 C11.446875 -0.12375 11.446875 -0.12375 23.125 -0.25 C25.52410645 -0.28641602 27.92321289 -0.32283203 30.39501953 -0.36035156 C32.30760809 -0.37203969 34.22020664 -0.38223122 36.1328125 -0.390625 C37.11693115 -0.41108887 38.1010498 -0.43155273 39.11499023 -0.45263672 C45.08894506 -0.45566534 48.41476043 0.07892031 53 4 C54 5 54 5 54.625 7.9375 C54.56279017 14.00917917 48.95990434 17.97117328 45 22 C43.63430259 23.53146141 42.27876759 25.07209797 40.9375 26.625 C40.36902344 27.27726562 39.80054688 27.92953125 39.21484375 28.6015625 C38.81394531 29.06304687 38.41304687 29.52453125 38 30 C34.87964445 29.40220557 34.0464612 29.0464612 31.6875 26.6875 C30 24 30 24 30 22 C31 20 31 20 35 15 C27.74 15 20.48 15 13 15 C13 21.93 13 28.86 13 36 C17.71704177 33.44464865 17.71704177 33.44464865 20 31 C23 31 23 31 24.40234375 32.36328125 C24.90894531 33.00652344 25.41554688 33.64976563 25.9375 34.3125 C28.90841545 37.86023201 32.05863175 40.96851078 35.5 44.0625 C40.52816537 48.59689318 45.42601292 53.24873922 50.25 58 C50.91837891 58.64718994 51.58675781 59.29437988 52.27539062 59.96118164 C53.19868164 60.87758423 53.19868164 60.87758423 54.140625 61.8125 C54.96868652 62.62654297 54.96868652 62.62654297 55.81347656 63.45703125 C57 65 57 65 57 68 C43.37914053 69.52093964 43.37914053 69.52093964 37.95703125 66.0546875 C35.42666444 63.48901325 33.19310937 60.85793365 31 58 C29.71848152 56.47060561 28.4278292 54.94878187 27.125 53.4375 C26.61195312 52.79683594 26.09890625 52.15617187 25.5703125 51.49609375 C24.05685784 49.9388269 24.05685784 49.9388269 22.171875 48.93359375 C19.04873931 49.02908531 17.75637721 50.76742057 15.67578125 52.93359375 C15.16402344 53.49175781 14.65226562 54.04992187 14.125 54.625 C10.27372428 58.71267116 6.46725268 62.576379 2 66 C1.34 66 0.68 66 0 66 C0 44.22 0 22.44 0 0 Z " fill="#8E47EA" transform="translate(21,22)"/>
<path d="M0 0 C3.3 0 6.6 0 10 0 C10 1.32 10 2.64 10 4 C10.66 4 11.32 4 12 4 C12 3.34 12 2.68 12 2 C15.66430014 -0.34515209 18.72175983 -0.36881381 23 0 C26.54751741 1.43265126 29.74571464 2.8440005 32 6 C34.44011279 12.29292246 35.43103112 19.4224222 32.875 25.8125 C27.00966184 32.65539452 27.00966184 32.65539452 22.5625 33.41796875 C16.95514186 33.59319869 15.10197623 33.06118574 10 30 C10 36.27 10 42.54 10 49 C6.7 49 3.4 49 0 49 C0 32.83 0 16.66 0 0 Z " fill="#18181A" transform="translate(199,43)"/>
<path d="M0 0 C3.3 0 6.6 0 10 0 C10 14.19 10 28.38 10 43 C6.7 43 3.4 43 0 43 C0 42.01 0 41.02 0 40 C-0.78375 40.495 -1.5675 40.99 -2.375 41.5 C-7.05763339 43.4376414 -10.99657421 43.73629008 -16 43 C-20.79118656 40.45149651 -22.41173983 37.09915108 -24 32 C-24.63006228 26.43773139 -24.19437208 21.18669765 -22 16 C-18.76801502 12.51523407 -15.58836426 10.15572199 -10.8125 9.6875 C-6.09902705 10.07385024 -3.91664251 11.44219264 0 14 C0 9.38 0 4.76 0 0 Z " fill="#161618" transform="translate(337,33)"/>
<path d="M0 0 C3.3 0 6.6 0 10 0 C10.50207679 2.79130788 11.00175075 5.58300871 11.5 8.375 C11.64308594 9.1690625 11.78617187 9.963125 11.93359375 10.78125 C13 16.7734375 13 16.7734375 13 19 C13.66 19 14.32 19 15 19 C15.103125 17.906875 15.20625 16.81375 15.3125 15.6875 C15.97061041 10.29680151 17.50167472 5.2115662 19 0 C22.96 0 26.92 0 31 0 C31.12117188 0.89203125 31.24234375 1.7840625 31.3671875 2.703125 C31.53476562 3.87359375 31.70234375 5.0440625 31.875 6.25 C32.11863281 7.99023438 32.11863281 7.99023438 32.3671875 9.765625 C32.91820431 12.58193313 33.55796482 14.55217557 35 17 C35.64715133 14.9170757 36.29267166 12.83364461 36.9375 10.75 C37.29714844 9.58984375 37.65679687 8.4296875 38.02734375 7.234375 C38.75066637 4.82910942 39.42542411 2.44345956 40 0 C42.64 0 45.28 0 48 0 C47.67872258 6.02672126 47.13686353 11.2511854 44.76171875 16.8125 C43.43726146 20.61606965 42.99688017 24.58326969 42.4296875 28.55859375 C42 31 42 31 41 32 C36.99779347 32.14355117 33.00558317 32.04216403 29 32 C27.68 26.06 26.36 20.12 25 14 C22.68622795 17.47065807 22.11015527 20.67040155 21.375 24.6875 C21.2409375 25.38939453 21.106875 26.09128906 20.96875 26.81445312 C20.6397283 28.54181706 20.31904688 30.27076591 20 32 C18.02090602 32.02686553 16.04171029 32.04633375 14.0625 32.0625 C12.96035156 32.07410156 11.85820312 32.08570313 10.72265625 32.09765625 C8 32 8 32 7 31 C6.6957344 29.59013562 6.43279092 28.17131189 6.1875 26.75 C5.38520539 22.50756333 4.25951471 18.48474138 2.9375 14.375 C1.39433738 9.5275189 0.39722672 5.06464071 0 0 Z " fill="#781FD5" transform="translate(427,44)"/>
<path d="M0 0 C4.26489059 2.36209325 6.8569661 4.22846224 8.75 8.875 C9.56619964 13.6264479 9.74349469 17.86160544 7.57421875 22.2578125 C4.80345977 26.13830699 2.08170213 28.77192723 -2.25 30.875 C-8.03026134 31.67801503 -13.44042035 31.66867529 -18.8125 29.3125 C-22.80965169 25.31534831 -25.44529434 21.67050767 -25.625 15.875 C-25.24697257 9.94111483 -24.38389846 5.55060623 -19.8125 1.5 C-13.57338556 -3.53980303 -7.00235713 -3.22708335 0 0 Z " fill="#7B24D8" transform="translate(416.25,45.125)"/>
<path d="M0 0 C3.04474248 1.73465408 5.58588182 3.39179928 7.6875 6.25 C9.3903108 12.49363959 9.61543409 19.39413182 6.6875 25.25 C2.33677344 29.74705145 -2.284748 31.66601892 -8.5 31.875 C-14.64644534 31.54656399 -18.04600305 29.74314664 -22.1875 25.1875 C-23.3125 23.25 -23.3125 23.25 -23.3125 20.25 C-23.9725 20.25 -24.6325 20.25 -25.3125 20.25 C-26.17212687 9.68614087 -26.17212687 9.68614087 -23.25 5.3125 C-16.97606029 -1.9983093 -8.87325895 -4.15624769 0 0 Z " fill="#131315" transform="translate(261.3125,44.75)"/>
<path d="M0 0 C2.54117852 1.88235446 2.95378317 2.73645822 3.51171875 5.91796875 C3.67447917 8.9453125 3.83723958 11.97265625 4 15 C-3.26 15 -10.52 15 -18 15 C-18 16.32 -18 17.64 -18 19 C-16.54364629 19.22174933 -15.08477044 19.42698698 -13.625 19.625 C-12.81289062 19.74101563 -12.00078125 19.85703125 -11.1640625 19.9765625 C-10.44992188 19.98429687 -9.73578125 19.99203125 -9 20 C-8.34 19.34 -7.68 18.68 -7 18 C-4.3984375 17.8046875 -4.3984375 17.8046875 -1.375 17.875 C0.12933594 17.90207031 0.12933594 17.90207031 1.6640625 17.9296875 C2.43492187 17.95289062 3.20578125 17.97609375 4 18 C4 19.32 4 20.64 4 22 C2.3203125 23.66796875 2.3203125 23.66796875 0.125 25.1875 C-0.59429687 25.69667969 -1.31359375 26.20585938 -2.0546875 26.73046875 C-7.01975255 29.97072204 -12.21764831 29.53736514 -18 29 C-22.88949139 26.729879 -25.76263748 23.90498706 -28 19 C-28.88561555 13.56586297 -29.31233753 8.39373298 -26.6015625 3.44921875 C-19.10040442 -5.50958796 -9.59099976 -6.35855638 0 0 Z " fill="#161618" transform="translate(157,47)"/>
<path d="M0 0 C3.3 0 6.6 0 10 0 C10 1.32 10 2.64 10 4 C10.969375 3.319375 11.93875 2.63875 12.9375 1.9375 C16.77330299 -0.2488299 19.61452252 -0.33907542 23.91796875 0.38671875 C27.68921744 1.49757437 30.05117752 3.48404138 32.11669922 6.78417969 C33.21260026 9.53332226 33.2267638 11.68420318 33.1953125 14.640625 C33.18886719 15.71054687 33.18242187 16.78046875 33.17578125 17.8828125 C33.15902344 18.99398437 33.14226562 20.10515625 33.125 21.25 C33.11597656 22.37664062 33.10695313 23.50328125 33.09765625 24.6640625 C33.07410658 27.44292365 33.0412168 30.2213539 33 33 C29.7 33 26.4 33 23 33 C22.92652344 30.76089844 22.92652344 30.76089844 22.8515625 28.4765625 C22.77654173 26.52602237 22.7009936 24.57550247 22.625 22.625 C22.5940625 21.64015625 22.563125 20.6553125 22.53125 19.640625 C22.49257813 18.69960938 22.45390625 17.75859375 22.4140625 16.7890625 C22.36693115 15.48509521 22.36693115 15.48509521 22.31884766 14.15478516 C22.18770567 11.79038206 22.18770567 11.79038206 20 10 C16.306493 9.79853598 13.52059568 9.82646811 10 11 C10 18.26 10 25.52 10 33 C6.7 33 3.4 33 0 33 C0 22.11 0 11.22 0 0 Z " fill="#1A1A1C" transform="translate(275,43)"/>
<path d="M0 0 C2.97 0 5.94 0 9 0 C9 0.99 9 1.98 9 3 C9.598125 2.505 10.19625 2.01 10.8125 1.5 C15.51376275 -0.71235894 19.89242877 -0.82259566 25 0 C28.1716763 1.66282058 30.37568466 3.75136933 32 7 C32.084915 8.8863912 32.107193 10.77578515 32.09765625 12.6640625 C32.09443359 13.78554688 32.09121094 14.90703125 32.08789062 16.0625 C32.07532227 17.8259375 32.07532227 17.8259375 32.0625 19.625 C32.05798828 20.80835937 32.05347656 21.99171875 32.04882812 23.2109375 C32.03701467 26.14067507 32.02054258 29.07031272 32 32 C28.7 32 25.4 32 22 32 C22 24.74 22 17.48 22 10 C18.50615721 8.83538574 15.66344611 8.86431681 12 9 C10.34920558 10.65079442 10.77450553 12.63736179 10.68359375 14.91015625 C10.64169922 15.89951172 10.59980469 16.88886719 10.55664062 17.90820312 C10.51732422 18.94912109 10.47800781 19.99003906 10.4375 21.0625 C10.39431641 22.10728516 10.35113281 23.15207031 10.30664062 24.22851562 C10.20018895 26.81883972 10.09955692 29.40940175 10 32 C6.7 32 3.4 32 0 32 C0 21.44 0 10.88 0 0 Z " fill="#7F2BDB" transform="translate(354,44)"/>
<path d="M0 0 C4.16094809 1.57016909 7.23289751 3.48790837 10 7 C10 8.32 10 9.64 10 11 C6.7 11 3.4 11 0 11 C-0.33 10.34 -0.66 9.68 -1 9 C-2.98 9 -4.96 9 -7 9 C-6.67 9.99 -6.34 10.98 -6 12 C-3.83703526 12.92084947 -3.83703526 12.92084947 -1.25 13.5 C2.58452303 14.54777382 5.76498969 15.59983106 9 18 C10.56935594 21.13871188 10.35201103 23.53855822 10 27 C7.03256035 30.59216379 4.89645628 32.81433295 0.20703125 33.2734375 C-10.0945886 33.58165628 -10.0945886 33.58165628 -14.25 30.875 C-17.22988532 27.75966535 -17.90113704 26.25110721 -18 22 C-16.37581255 21.91909029 -14.75048255 21.86085005 -13.125 21.8125 C-12.22007812 21.77769531 -11.31515625 21.74289063 -10.3828125 21.70703125 C-9.20332031 21.85205078 -9.20332031 21.85205078 -8 22 C-7.34 22.99 -6.68 23.98 -6 25 C-3.41619823 25.25030977 -3.41619823 25.25030977 -1 25 C-1 24.01 -1 23.02 -1 22 C-1.81984375 21.75765625 -2.6396875 21.5153125 -3.484375 21.265625 C-5.10085937 20.76289062 -5.10085937 20.76289062 -6.75 20.25 C-8.35101563 19.76273438 -8.35101563 19.76273438 -9.984375 19.265625 C-13.19824624 17.91679821 -14.86068975 16.73243655 -17 14 C-17.79952969 8.96296296 -17.79952969 8.96296296 -17 6 C-12.31701173 0.17481947 -7.01902723 -0.66284237 0 0 Z " fill="#1A1A1B" transform="translate(183,43)"/>
<path d="M0 0 C3.3 0 6.6 0 10 0 C10 1.65 10 3.3 10 5 C10.66 5 11.32 5 12 5 C12.33 4.01 12.66 3.02 13 2 C16.465 1.505 16.465 1.505 20 1 C20 4.3 20 7.6 20 11 C18.88625 11.12375 17.7725 11.2475 16.625 11.375 C12.96896323 11.6465813 12.96896323 11.6465813 11 14 C10.63105418 16.03060659 10.63105418 16.03060659 10.5859375 18.3515625 C10.52792969 19.62773438 10.52792969 19.62773438 10.46875 20.9296875 C10.42234375 22.26386719 10.42234375 22.26386719 10.375 23.625 C10.31699219 24.97078125 10.31699219 24.97078125 10.2578125 26.34375 C10.16341224 28.56215605 10.08061195 30.78105013 10 33 C6.7 33 3.4 33 0 33 C0 22.11 0 11.22 0 0 Z " fill="#1A1A1C" transform="translate(106,43)"/>
<path d="M0 0 C1.65 0 3.3 0 5 0 C5.99 2.31 6.98 4.62 8 7 C9.32 4.69 10.64 2.38 12 0 C13.65 0 15.3 0 17 0 C17 4.95 17 9.9 17 15 C15.68 15 14.36 15 13 15 C12.67 13.35 12.34 11.7 12 10 C11.34 11.65 10.68 13.3 10 15 C8.68 15 7.36 15 6 15 C5.67 14.01 5.34 13.02 5 12 C4.67 12.99 4.34 13.98 4 15 C2.68 15 1.36 15 0 15 C0 10.05 0 5.1 0 0 Z " fill="#4D4D4D" transform="translate(506,35)"/>
<path d="M0 0 C2.08774225 2.56952892 2.2467555 4.72798282 2.078125 7.9921875 C1.29263776 11.47270854 -0.54630238 12.98848169 -3.375 15 C-6.65926353 15.7209359 -7.84305723 15.33066713 -10.6875 13.5625 C-13.15940626 9.80886456 -13.18625617 6.37084955 -12.375 2 C-9.14168158 -2.10382722 -4.57386799 -1.92583915 0 0 Z " fill="#EFEFEF" transform="translate(221.375,53)"/>
<path d="M0 0 C2.875 1.5 2.875 1.5 5 4 C5.71706185 6.82198534 5.7226415 9.1788076 5 12 C2.57641976 14.76980599 1.06245706 15.81860489 -2.5625 16.4375 C-5.53488137 15.90399565 -6.81790376 15.07753746 -9 13 C-9.49609375 10.625 -9.49609375 10.625 -9.4375 8 C-9.43621094 7.13375 -9.43492187 6.2675 -9.43359375 5.375 C-8.44436516 -0.0434773 -5.01918556 -0.70268598 0 0 Z " fill="#EFEFEF" transform="translate(332,52)"/>
<path d="M0 0 C3.01225915 3.01225915 2.94325901 5.35315267 3.3125 9.5625 C3 13 3 13 1.3125 14.9375 C-1.46367686 16.21304072 -2.9813615 16.52826174 -6 16 C-8.3125 14.5625 -8.3125 14.5625 -10 12 C-10.49799479 8.93456543 -10.6232551 6.04889656 -10 3 C-7.20457811 -0.76628698 -4.50327267 -0.40938842 0 0 Z " fill="#F6F1FC" transform="translate(411,52)"/>
<path d="M0 0 C2.375 1 2.375 1 4 3 C4.72778175 8.01360764 4.81837816 9.87765281 1.8125 14 C-1 16 -1 16 -3.625 16.5 C-6.46648859 15.90179187 -7.24128679 15.27833302 -9 13 C-9.3984375 10.625 -9.3984375 10.625 -9.375 8 C-9.38273438 7.13375 -9.39046875 6.2675 -9.3984375 5.375 C-8.48083976 -0.09460219 -5.00574184 -0.61294798 0 0 Z " fill="#F1F1F1" transform="translate(256,52)"/>
<path d="M0 0 C3.96 0 7.92 0 12 0 C12 0.66 12 1.32 12 2 C10.68 2 9.36 2 8 2 C8 6.29 8 10.58 8 15 C7.01 15 6.02 15 5 15 C4.67 11.04 4.34 7.08 4 3 C2.68 2.67 1.36 2.34 0 2 C0 1.34 0 0.68 0 0 Z " fill="#111111" transform="translate(491,35)"/>
<path d="M0 0 C1.65 0 3.3 0 5 0 C5 4.95 5 9.9 5 15 C4.01 15 3.02 15 2 15 C2 12.36 2 9.72 2 7 C1.01 7.33 0.02 7.66 -1 8 C-0.67 5.36 -0.34 2.72 0 0 Z " fill="#212121" transform="translate(518,35)"/>
<path d="M0 0 C1.8125 1.3125 1.8125 1.3125 3 3 C3 3.99 3 4.98 3 6 C-0.96 6 -4.92 6 -9 6 C-7.63614608 0.54458431 -5.41328295 -0.67666037 0 0 Z " fill="#DCDCDD" transform="translate(148,51)"/>
<path d="M0 0 C1.32 0 2.64 0 4 0 C4.66 1.98 5.32 3.96 6 6 C5.01 6 4.02 6 3 6 C3 8.97 3 11.94 3 15 C2.01 15 1.02 15 0 15 C0 10.05 0 5.1 0 0 Z " fill="#161616" transform="translate(506,35)"/>
<path d="M0 0 C1.4540625 0.0309375 1.4540625 0.0309375 2.9375 0.0625 C3.2675 1.0525 3.5975 2.0425 3.9375 3.0625 C6.9075 3.0625 9.8775 3.0625 12.9375 3.0625 C12.9375 3.3925 12.9375 3.7225 12.9375 4.0625 C10.2975 4.0625 7.6575 4.0625 4.9375 4.0625 C4.9375 4.7225 4.9375 5.3825 4.9375 6.0625 C1.5625 5.8125 1.5625 5.8125 -2.0625 5.0625 C-3.5 3 -3.5 3 -4.0625 1.0625 C-3.0625 0.0625 -3.0625 0.0625 0 0 Z " fill="#E4E4E4" transform="translate(179.0625,50.9375)"/>
<path d="M0 0 C2 1 2 1 3.125 4.0625 C3.41375 5.031875 3.7025 6.00125 4 7 C4.66 6.67 5.32 6.34 6 6 C6 7.32 6 8.64 6 10 C5.01 10.33 4.02 10.66 3 11 C2.26676204 13.01508358 2.26676204 13.01508358 2 15 C1.67 14.01 1.34 13.02 1 12 C0.34 12.99 -0.32 13.98 -1 15 C-1 12.03 -1 9.06 -1 6 C-0.34 5.67 0.32 5.34 1 5 C0.67 3.35 0.34 1.7 0 0 Z " fill="#6B6B6B" transform="translate(510,35)"/>
<path d="M0 0 C0.66 0.33 1.32 0.66 2 1 C1.51789063 1.36609375 1.03578125 1.7321875 0.5390625 2.109375 C-5.48222614 7.27047955 -6.37847329 12.27531084 -7 20 C-7.33 20 -7.66 20 -8 20 C-8.86078544 9.42190338 -8.86078544 9.42190338 -5.6875 4.9375 C-3 2 -3 2 0 0 Z " fill="#616163" transform="translate(244,45)"/>
<path d="M0 0 C0.66 0.33 1.32 0.66 2 1 C1.6875 3.375 1.6875 3.375 1 6 C0.01 6.66 -0.98 7.32 -2 8 C-1.125 2.25 -1.125 2.25 0 0 Z " fill="#D8BFF3" transform="translate(451,57)"/>
<path d="M0 0 C0.33 0.66 0.66 1.32 1 2 C1.99 2 2.98 2 4 2 C4 3.65 4 5.3 4 7 C3.01 7 2.02 7 1 7 C0.67 4.69 0.34 2.38 0 0 Z " fill="#151515" transform="translate(512,43)"/>
<path d="M0 0 C1.62418745 -0.08090971 3.24951745 -0.13914995 4.875 -0.1875 C5.77992188 -0.22230469 6.68484375 -0.25710937 7.6171875 -0.29296875 C8.79667969 -0.14794922 8.79667969 -0.14794922 10 0 C10.66 0.99 11.32 1.98 12 3 C11.01 3.33 10.02 3.66 9 4 C9 3.01 9 2.02 9 1 C6.03 1 3.06 1 0 1 C0 0.67 0 0.34 0 0 Z " fill="#D1B4F4" transform="translate(354,43)"/>
</svg>
